<svg width="1268" height="92" viewBox="0 0 1268 92" fill="none" xmlns="http://www.w3.org/2000/svg">
<path d="M0.00173137 0.117364H3.14662L13.9644 26.0918H14.2265L25.0443 0.117364H28.1892V29.9355H25.6267V5.86843H25.3938L15.3331 29.9355H12.8579L2.79719 5.86843H2.56423V29.9355H0.00173137V0.117364ZM44.7428 30.4015C42.6559 30.4015 40.8505 29.9161 39.3266 28.9455C37.8027 27.9651 36.6234 26.6111 35.7886 24.8833C34.9636 23.1459 34.551 21.1464 34.551 18.8848C34.551 16.6329 34.9636 14.6333 35.7886 12.8862C36.6234 11.1293 37.7736 9.75586 39.2393 8.7658C40.7146 7.76604 42.4181 7.26616 44.3497 7.26616C45.563 7.26616 46.7326 7.48941 47.8586 7.9359C48.9845 8.37269 49.994 9.04729 50.887 9.95969C51.7897 10.8624 52.5031 12.0029 53.0273 13.3812C53.5514 14.7498 53.8135 16.3708 53.8135 18.2441V19.5254H36.3419V17.2395H51.1636C51.1636 15.803 50.8724 14.512 50.29 13.3667C49.7174 12.2116 48.9166 11.2992 47.8877 10.6294C46.8685 9.95969 45.6892 9.62482 44.3497 9.62482C42.9326 9.62482 41.6853 10.0034 40.6079 10.7605C39.5304 11.5176 38.686 12.5173 38.0745 13.7598C37.4727 15.0022 37.1669 16.3611 37.1572 17.8365V19.2051C37.1572 20.9814 37.463 22.5344 38.0745 23.8642C38.6957 25.1842 39.5741 26.2083 40.7098 26.9363C41.8454 27.6642 43.1898 28.0282 44.7428 28.0282C45.8008 28.0282 46.7278 27.8632 47.5237 27.5332C48.3293 27.2032 49.0039 26.7615 49.5475 26.2083C50.1008 25.6453 50.5181 25.0289 50.7996 24.3592L53.2602 25.16C52.9205 26.1015 52.3624 26.9702 51.5858 27.7662C50.819 28.5621 49.8581 29.2027 48.703 29.688C47.5577 30.1636 46.2376 30.4015 44.7428 30.4015ZM62.2391 15.9583V29.9355H59.6475V7.57191H62.1663V11.0808H62.3993C62.9234 9.93543 63.7388 9.01817 64.8453 8.32901C65.9615 7.63015 67.3399 7.28072 68.9802 7.28072C70.4847 7.28072 71.8048 7.59618 72.9405 8.22709C74.0858 8.84831 74.974 9.76556 75.6049 10.9789C76.2455 12.1922 76.5658 13.6821 76.5658 15.4487V29.9355H73.9742V15.6088C73.9742 13.7743 73.4598 12.3232 72.4309 11.2555C71.4117 10.1878 70.0431 9.65394 68.3251 9.65394C67.1506 9.65394 66.1071 9.90631 65.1947 10.411C64.2823 10.9158 63.5592 11.6438 63.0253 12.595C62.5012 13.5365 62.2391 14.6576 62.2391 15.9583ZM92.3223 7.57191V9.82866H81.65V7.57191H92.3223ZM84.9842 2.21396H87.5904V24.0971C87.5904 25.0289 87.7505 25.7618 88.0708 26.2956C88.3912 26.8198 88.8085 27.1935 89.323 27.4167C89.8374 27.6303 90.3858 27.737 90.9682 27.737C91.3079 27.737 91.5991 27.7176 91.8418 27.6788C92.0845 27.6303 92.298 27.5817 92.4824 27.5332L93.0357 29.8773C92.7833 29.9744 92.4727 30.0617 92.1039 30.1394C91.735 30.2267 91.2788 30.2704 90.7353 30.2704C89.784 30.2704 88.8668 30.0617 87.9835 29.6444C87.1099 29.227 86.3916 28.6058 85.8287 27.7807C85.2657 26.9557 84.9842 25.9316 84.9842 24.7086V2.21396ZM106.783 30.4015C104.851 30.4015 103.143 29.9113 101.658 28.9309C100.183 27.9506 99.0274 26.5965 98.1927 24.8688C97.3579 23.1313 96.9405 21.127 96.9405 18.8556C96.9405 16.5649 97.3579 14.5508 98.1927 12.8134C99.0274 11.0662 100.183 9.70733 101.658 8.73668C103.143 7.75633 104.851 7.26616 106.783 7.26616C108.714 7.26616 110.418 7.75633 111.893 8.73668C113.369 9.71703 114.524 11.0759 115.359 12.8134C116.203 14.5508 116.625 16.5649 116.625 18.8556C116.625 21.127 116.208 23.1313 115.373 24.8688C114.538 26.5965 113.378 27.9506 111.893 28.9309C110.418 29.9113 108.714 30.4015 106.783 30.4015ZM106.783 28.0282C108.336 28.0282 109.651 27.6109 110.729 26.7761C111.806 25.9413 112.621 24.83 113.175 23.4419C113.738 22.0539 114.019 20.5252 114.019 18.8556C114.019 17.1861 113.738 15.6525 113.175 14.2548C112.621 12.8571 111.806 11.736 110.729 10.8915C109.651 10.0471 108.336 9.62482 106.783 9.62482C105.24 9.62482 103.924 10.0471 102.837 10.8915C101.76 11.736 100.94 12.8571 100.377 14.2548C99.8234 15.6525 99.5467 17.1861 99.5467 18.8556C99.5467 20.5252 99.8234 22.0539 100.377 23.4419C100.94 24.83 101.76 25.9413 102.837 26.7761C103.915 27.6109 105.23 28.0282 106.783 28.0282ZM122.437 29.9355V7.57191H124.956V11.008H125.145C125.592 9.88204 126.369 8.97449 127.475 8.28533C128.591 7.58647 129.853 7.23704 131.261 7.23704C131.474 7.23704 131.712 7.24189 131.974 7.2516C132.236 7.2613 132.454 7.27101 132.629 7.28072V9.91602C132.513 9.8966 132.309 9.86748 132.018 9.82866C131.726 9.78983 131.411 9.77042 131.071 9.77042C129.907 9.77042 128.868 10.0179 127.956 10.513C127.053 10.9983 126.339 11.6729 125.815 12.5368C125.291 13.4006 125.029 14.3858 125.029 15.4924V29.9355H122.437ZM155.075 30.4451C153.726 30.4451 152.493 30.1831 151.377 29.6589C150.261 29.1251 149.372 28.3583 148.712 27.3585C148.052 26.349 147.722 25.126 147.722 23.6895C147.722 22.5829 147.931 21.6511 148.348 20.894C148.766 20.1369 149.358 19.5157 150.125 19.0304C150.892 18.545 151.799 18.1616 152.847 17.8801C153.896 17.5987 155.051 17.3803 156.313 17.225C157.565 17.0697 158.623 16.9338 159.487 16.8173C160.36 16.7008 161.025 16.5164 161.481 16.264C161.937 16.0117 162.166 15.604 162.166 15.041V14.5169C162.166 12.993 161.709 11.7942 160.797 10.9206C159.894 10.0373 158.594 9.5957 156.895 9.5957C155.284 9.5957 153.968 9.94999 152.949 10.6586C151.94 11.3671 151.231 12.2019 150.824 13.1628L148.363 12.2747C148.868 11.0517 149.567 10.0762 150.46 9.34819C151.353 8.6105 152.352 8.0815 153.459 7.76119C154.565 7.43117 155.686 7.26616 156.822 7.26616C157.676 7.26616 158.564 7.37778 159.487 7.60103C160.418 7.82428 161.282 8.21253 162.078 8.7658C162.874 9.30936 163.52 10.0713 164.015 11.0517C164.51 12.0223 164.757 13.255 164.757 14.7498V29.9355H162.166V26.3975H162.005C161.695 27.0576 161.234 27.6982 160.622 28.3194C160.011 28.9406 159.244 29.4502 158.322 29.8482C157.4 30.2462 156.317 30.4451 155.075 30.4451ZM155.424 28.0719C156.803 28.0719 157.997 27.7662 159.006 27.1547C160.016 26.5431 160.792 25.7327 161.336 24.7232C161.889 23.704 162.166 22.5829 162.166 21.3599V18.1277C161.971 18.3121 161.646 18.4771 161.19 18.6227C160.744 18.7683 160.224 18.8993 159.632 19.0158C159.05 19.1226 158.467 19.2148 157.885 19.2924C157.303 19.3701 156.778 19.438 156.313 19.4963C155.051 19.6516 153.973 19.8942 153.08 20.2243C152.187 20.5543 151.503 21.0105 151.027 21.5929C150.552 22.1655 150.314 22.9032 150.314 23.8059C150.314 25.1648 150.799 26.218 151.77 26.9654C152.741 27.7031 153.959 28.0719 155.424 28.0719ZM186.8 12.4785L184.427 13.1483C184.194 12.4785 183.864 11.8719 183.436 11.3283C183.009 10.7847 182.451 10.3528 181.762 10.0325C181.083 9.71218 180.238 9.55202 179.229 9.55202C177.715 9.55202 176.472 9.91116 175.501 10.6294C174.531 11.3477 174.045 12.2747 174.045 13.4103C174.045 14.3713 174.375 15.1526 175.036 15.7544C175.705 16.3465 176.734 16.8173 178.122 17.1667L181.5 17.9966C183.373 18.4528 184.776 19.176 185.708 20.166C186.649 21.1561 187.12 22.3985 187.12 23.8933C187.12 25.1551 186.771 26.2762 186.072 27.2566C185.373 28.2369 184.397 29.0086 183.145 29.5716C181.903 30.1248 180.461 30.4015 178.821 30.4015C176.637 30.4015 174.837 29.9113 173.419 28.9309C172.002 27.9409 171.095 26.514 170.697 24.6504L173.186 24.0389C173.507 25.3687 174.133 26.3733 175.065 27.0527C176.006 27.7322 177.244 28.0719 178.777 28.0719C180.495 28.0719 181.869 27.6885 182.898 26.9217C183.927 26.1452 184.441 25.1745 184.441 24.0098C184.441 23.1071 184.14 22.35 183.538 21.7385C182.937 21.1172 182.024 20.661 180.801 20.3699L177.147 19.4963C175.205 19.0304 173.769 18.2927 172.837 17.2832C171.905 16.2737 171.439 15.0216 171.439 13.5268C171.439 12.2941 171.774 11.2118 172.444 10.28C173.114 9.33848 174.036 8.60079 175.21 8.06694C176.385 7.53308 177.724 7.26616 179.229 7.26616C181.277 7.26616 182.912 7.73207 184.135 8.66388C185.368 9.586 186.256 10.8575 186.8 12.4785ZM207.943 12.4785L205.57 13.1483C205.337 12.4785 205.007 11.8719 204.58 11.3283C204.153 10.7847 203.595 10.3528 202.906 10.0325C202.226 9.71218 201.382 9.55202 200.372 9.55202C198.858 9.55202 197.616 9.91116 196.645 10.6294C195.674 11.3477 195.189 12.2747 195.189 13.4103C195.189 14.3713 195.519 15.1526 196.179 15.7544C196.849 16.3465 197.878 16.8173 199.266 17.1667L202.644 17.9966C204.517 18.4528 205.919 19.176 206.851 20.166C207.793 21.1561 208.264 22.3985 208.264 23.8933C208.264 25.1551 207.914 26.2762 207.215 27.2566C206.516 28.2369 205.541 29.0086 204.289 29.5716C203.046 30.1248 201.605 30.4015 199.965 30.4015C197.781 30.4015 195.98 29.9113 194.563 28.9309C193.146 27.9409 192.238 26.514 191.84 24.6504L194.33 24.0389C194.65 25.3687 195.276 26.3733 196.208 27.0527C197.15 27.7322 198.387 28.0719 199.921 28.0719C201.639 28.0719 203.012 27.6885 204.041 26.9217C205.07 26.1452 205.585 25.1745 205.585 24.0098C205.585 23.1071 205.284 22.35 204.682 21.7385C204.08 21.1172 203.168 20.661 201.945 20.3699L198.29 19.4963C196.349 19.0304 194.912 18.2927 193.981 17.2832C193.049 16.2737 192.583 15.0216 192.583 13.5268C192.583 12.2941 192.918 11.2118 193.587 10.28C194.257 9.33848 195.179 8.60079 196.354 8.06694C197.528 7.53308 198.868 7.26616 200.372 7.26616C202.42 7.26616 204.056 7.73207 205.279 8.66388C206.512 9.586 207.4 10.8575 207.943 12.4785ZM214.09 29.9355V7.57191H216.696V29.9355H214.09ZM215.415 3.72816C214.881 3.72816 214.425 3.54859 214.047 3.18945C213.668 2.82061 213.479 2.37897 213.479 1.86452C213.479 1.35008 213.668 0.913293 214.047 0.554155C214.425 0.185309 214.881 0.000885785 215.415 0.000885785C215.949 0.000885785 216.405 0.185309 216.784 0.554155C217.162 0.913293 217.352 1.35008 217.352 1.86452C217.352 2.37897 217.162 2.82061 216.784 3.18945C216.405 3.54859 215.949 3.72816 215.415 3.72816ZM232.205 38.7878C230.681 38.7878 229.347 38.5888 228.201 38.1909C227.056 37.8026 226.09 37.2688 225.304 36.5893C224.518 35.9099 223.906 35.1479 223.47 34.3034L225.595 32.9057C225.916 33.4687 226.343 34.022 226.877 34.5655C227.42 35.1091 228.124 35.5604 228.988 35.9196C229.861 36.2787 230.934 36.4583 232.205 36.4583C234.186 36.4583 235.782 35.9632 236.996 34.9732C238.219 33.9831 238.83 32.4447 238.83 30.3578V25.3201H238.597C238.296 25.9996 237.864 26.679 237.301 27.3585C236.738 28.0282 236.001 28.5864 235.088 29.0328C234.186 29.4793 233.064 29.7026 231.725 29.7026C229.939 29.7026 228.352 29.2609 226.964 28.3777C225.586 27.4944 224.498 26.2325 223.703 24.5922C222.916 22.9421 222.523 20.9765 222.523 18.6955C222.523 16.4339 222.907 14.4441 223.673 12.726C224.45 11.008 225.532 9.6685 226.92 8.70756C228.308 7.74663 229.924 7.26616 231.769 7.26616C233.137 7.26616 234.273 7.50882 235.176 7.99414C236.078 8.46976 236.801 9.06185 237.345 9.77042C237.898 10.479 238.33 11.1681 238.641 11.8379H238.903V7.57191H241.436V30.5179C241.436 32.4107 241.033 33.9686 240.228 35.1916C239.422 36.4146 238.325 37.3173 236.937 37.8997C235.549 38.4918 233.972 38.7878 232.205 38.7878ZM232.031 27.3294C233.467 27.3294 234.695 26.9848 235.714 26.2956C236.733 25.5968 237.515 24.597 238.058 23.2963C238.602 21.9957 238.874 20.4475 238.874 18.6518C238.874 16.9047 238.607 15.3565 238.073 14.0073C237.539 12.6484 236.763 11.5807 235.743 10.8042C234.734 10.0179 233.496 9.62482 232.031 9.62482C230.536 9.62482 229.274 10.0276 228.245 10.8333C227.216 11.6389 226.44 12.726 225.916 14.0946C225.391 15.4535 225.129 16.9726 225.129 18.6518C225.129 20.3601 225.396 21.8695 225.93 23.1799C226.464 24.4805 227.245 25.4997 228.274 26.2374C229.303 26.9654 230.555 27.3294 232.031 27.3294ZM251.012 15.9583V29.9355H248.42V7.57191H250.939V11.0808H251.172C251.696 9.93543 252.512 9.01817 253.618 8.32901C254.735 7.63015 256.113 7.28072 257.753 7.28072C259.258 7.28072 260.578 7.59618 261.713 8.22709C262.859 8.84831 263.747 9.76556 264.378 10.9789C265.018 12.1922 265.339 13.6821 265.339 15.4487V29.9355H262.747V15.6088C262.747 13.7743 262.233 12.3232 261.204 11.2555C260.185 10.1878 258.816 9.65394 257.098 9.65394C255.924 9.65394 254.88 9.90631 253.968 10.411C253.055 10.9158 252.332 11.6438 251.798 12.595C251.274 13.5365 251.012 14.6576 251.012 15.9583ZM272.287 29.9355V7.57191H274.805V11.008H275.038C275.485 9.85292 276.227 8.94537 277.266 8.28533C278.314 7.61559 279.571 7.28072 281.037 7.28072C282.58 7.28072 283.847 7.64471 284.837 8.37269C285.837 9.09097 286.584 10.081 287.079 11.3429H287.269C287.773 10.1004 288.593 9.11523 289.729 8.38725C290.874 7.64956 292.262 7.28072 293.893 7.28072C295.97 7.28072 297.611 7.9359 298.814 9.24627C300.018 10.5469 300.62 12.4494 300.62 14.9537V29.9355H298.028V14.9537C298.028 13.1871 297.577 11.8622 296.674 10.9789C295.771 10.0956 294.582 9.65394 293.107 9.65394C291.399 9.65394 290.083 10.1781 289.161 11.2264C288.239 12.2747 287.778 13.6045 287.778 15.2157V29.9355H285.128V14.7207C285.128 13.2065 284.706 11.9835 283.862 11.0517C283.017 10.1199 281.828 9.65394 280.294 9.65394C279.266 9.65394 278.339 9.90631 277.514 10.411C276.698 10.9158 276.053 11.6195 275.577 12.5222C275.111 13.4152 274.878 14.4441 274.878 15.6088V29.9355H272.287ZM316.646 30.4015C314.559 30.4015 312.753 29.9161 311.229 28.9455C309.705 27.9651 308.526 26.6111 307.691 24.8833C306.866 23.1459 306.454 21.1464 306.454 18.8848C306.454 16.6329 306.866 14.6333 307.691 12.8862C308.526 11.1293 309.676 9.75586 311.142 8.7658C312.617 7.76604 314.321 7.26616 316.252 7.26616C317.466 7.26616 318.635 7.48941 319.761 7.9359C320.887 8.37269 321.897 9.04729 322.79 9.95969C323.692 10.8624 324.406 12.0029 324.93 13.3812C325.454 14.7498 325.716 16.3708 325.716 18.2441V19.5254H308.245V17.2395H323.066C323.066 15.803 322.775 14.512 322.193 13.3667C321.62 12.2116 320.819 11.2992 319.79 10.6294C318.771 9.95969 317.592 9.62482 316.252 9.62482C314.835 9.62482 313.588 10.0034 312.511 10.7605C311.433 11.5176 310.589 12.5173 309.977 13.7598C309.375 15.0022 309.07 16.3611 309.06 17.8365V19.2051C309.06 20.9814 309.366 22.5344 309.977 23.8642C310.598 25.1842 311.477 26.2083 312.612 26.9363C313.748 27.6642 315.092 28.0282 316.646 28.0282C317.704 28.0282 318.63 27.8632 319.426 27.5332C320.232 27.2032 320.907 26.7615 321.45 26.2083C322.003 25.6453 322.421 25.0289 322.702 24.3592L325.163 25.16C324.823 26.1015 324.265 26.9702 323.489 27.7662C322.722 28.5621 321.761 29.2027 320.606 29.688C319.46 30.1636 318.14 30.4015 316.646 30.4015ZM334.142 15.9583V29.9355H331.55V7.57191H334.069V11.0808H334.302C334.826 9.93543 335.641 9.01817 336.748 8.32901C337.864 7.63015 339.243 7.28072 340.883 7.28072C342.387 7.28072 343.708 7.59618 344.843 8.22709C345.989 8.84831 346.877 9.76556 347.508 10.9789C348.148 12.1922 348.469 13.6821 348.469 15.4487V29.9355H345.877V15.6088C345.877 13.7743 345.362 12.3232 344.334 11.2555C343.314 10.1878 341.946 9.65394 340.228 9.65394C339.053 9.65394 338.01 9.90631 337.097 10.411C336.185 10.9158 335.462 11.6438 334.928 12.595C334.404 13.5365 334.142 14.6576 334.142 15.9583ZM364.225 7.57191V9.82866H353.553V7.57191H364.225ZM356.887 2.21396H359.493V24.0971C359.493 25.0289 359.653 25.7618 359.974 26.2956C360.294 26.8198 360.711 27.1935 361.226 27.4167C361.74 27.6303 362.289 27.737 362.871 27.737C363.211 27.737 363.502 27.7176 363.744 27.6788C363.987 27.6303 364.201 27.5817 364.385 27.5332L364.938 29.8773C364.686 29.9744 364.375 30.0617 364.007 30.1394C363.638 30.2267 363.182 30.2704 362.638 30.2704C361.687 30.2704 360.769 30.0617 359.886 29.6444C359.013 29.227 358.294 28.6058 357.731 27.7807C357.168 26.9557 356.887 25.9316 356.887 24.7086V2.21396ZM381.917 29.9355V7.57191H384.523V29.9355H381.917ZM383.242 3.72816C382.708 3.72816 382.252 3.54859 381.873 3.18945C381.495 2.82061 381.306 2.37897 381.306 1.86452C381.306 1.35008 381.495 0.913293 381.873 0.554155C382.252 0.185309 382.708 0.000885785 383.242 0.000885785C383.776 0.000885785 384.232 0.185309 384.611 0.554155C384.989 0.913293 385.178 1.35008 385.178 1.86452C385.178 2.37897 384.989 2.82061 384.611 3.18945C384.232 3.54859 383.776 3.72816 383.242 3.72816ZM406.526 12.4785L404.153 13.1483C403.92 12.4785 403.59 11.8719 403.163 11.3283C402.735 10.7847 402.177 10.3528 401.488 10.0325C400.809 9.71218 399.964 9.55202 398.955 9.55202C397.441 9.55202 396.198 9.91116 395.227 10.6294C394.257 11.3477 393.772 12.2747 393.772 13.4103C393.772 14.3713 394.102 15.1526 394.762 15.7544C395.431 16.3465 396.46 16.8173 397.848 17.1667L401.226 17.9966C403.099 18.4528 404.502 19.176 405.434 20.166C406.375 21.1561 406.846 22.3985 406.846 23.8933C406.846 25.1551 406.497 26.2762 405.798 27.2566C405.099 28.2369 404.123 29.0086 402.871 29.5716C401.629 30.1248 400.187 30.4015 398.547 30.4015C396.363 30.4015 394.563 29.9113 393.145 28.9309C391.728 27.9409 390.821 26.514 390.423 24.6504L392.913 24.0389C393.233 25.3687 393.859 26.3733 394.791 27.0527C395.732 27.7322 396.97 28.0719 398.503 28.0719C400.221 28.0719 401.595 27.6885 402.624 26.9217C403.653 26.1452 404.167 25.1745 404.167 24.0098C404.167 23.1071 403.866 22.35 403.264 21.7385C402.663 21.1172 401.75 20.661 400.527 20.3699L396.873 19.4963C394.931 19.0304 393.495 18.2927 392.563 17.2832C391.631 16.2737 391.165 15.0216 391.165 13.5268C391.165 12.2941 391.5 11.2118 392.17 10.28C392.84 9.33848 393.762 8.60079 394.936 8.06694C396.111 7.53308 397.45 7.26616 398.955 7.26616C401.003 7.26616 402.638 7.73207 403.861 8.66388C405.094 9.586 405.982 10.8575 406.526 12.4785ZM424.298 29.9355V7.57191H426.817V11.008H427.05C427.496 9.85292 428.239 8.94537 429.277 8.28533C430.326 7.61559 431.583 7.28072 433.048 7.28072C434.592 7.28072 435.858 7.64471 436.848 8.37269C437.848 9.09097 438.596 10.081 439.091 11.3429H439.28C439.785 10.1004 440.605 9.11523 441.74 8.38725C442.886 7.64956 444.274 7.28072 445.905 7.28072C447.982 7.28072 449.622 7.9359 450.826 9.24627C452.029 10.5469 452.631 12.4494 452.631 14.9537V29.9355H450.039V14.9537C450.039 13.1871 449.588 11.8622 448.685 10.9789C447.783 10.0956 446.594 9.65394 445.118 9.65394C443.41 9.65394 442.095 10.1781 441.173 11.2264C440.251 12.2747 439.789 13.6045 439.789 15.2157V29.9355H437.14V14.7207C437.14 13.2065 436.717 11.9835 435.873 11.0517C435.028 10.1199 433.839 9.65394 432.306 9.65394C431.277 9.65394 430.35 9.90631 429.525 10.411C428.71 10.9158 428.064 11.6195 427.588 12.5222C427.123 13.4152 426.89 14.4441 426.89 15.6088V29.9355H424.298ZM465.861 30.4451C464.512 30.4451 463.279 30.1831 462.163 29.6589C461.047 29.1251 460.159 28.3583 459.499 27.3585C458.839 26.349 458.509 25.126 458.509 23.6895C458.509 22.5829 458.717 21.6511 459.135 20.894C459.552 20.1369 460.144 19.5157 460.911 19.0304C461.678 18.545 462.585 18.1616 463.634 17.8801C464.682 17.5987 465.837 17.3803 467.099 17.225C468.351 17.0697 469.409 16.9338 470.273 16.8173C471.147 16.7008 471.811 16.5164 472.268 16.264C472.724 16.0117 472.952 15.604 472.952 15.041V14.5169C472.952 12.993 472.496 11.7942 471.583 10.9206C470.681 10.0373 469.38 9.5957 467.681 9.5957C466.07 9.5957 464.755 9.94999 463.736 10.6586C462.726 11.3671 462.018 12.2019 461.61 13.1628L459.149 12.2747C459.654 11.0517 460.353 10.0762 461.246 9.34819C462.139 8.6105 463.139 8.0815 464.245 7.76119C465.352 7.43117 466.473 7.26616 467.609 7.26616C468.463 7.26616 469.351 7.37778 470.273 7.60103C471.205 7.82428 472.069 8.21253 472.865 8.7658C473.661 9.30936 474.306 10.0713 474.801 11.0517C475.296 12.0223 475.544 13.255 475.544 14.7498V29.9355H472.952V26.3975H472.792C472.481 27.0576 472.02 27.6982 471.409 28.3194C470.797 28.9406 470.03 29.4502 469.108 29.8482C468.186 30.2462 467.104 30.4451 465.861 30.4451ZM466.211 28.0719C467.589 28.0719 468.783 27.7662 469.793 27.1547C470.802 26.5431 471.578 25.7327 472.122 24.7232C472.675 23.704 472.952 22.5829 472.952 21.3599V18.1277C472.758 18.3121 472.433 18.4771 471.976 18.6227C471.53 18.7683 471.011 18.8993 470.419 19.0158C469.836 19.1226 469.254 19.2148 468.671 19.2924C468.089 19.3701 467.565 19.438 467.099 19.4963C465.837 19.6516 464.76 19.8942 463.867 20.2243C462.974 20.5543 462.289 21.0105 461.814 21.5929C461.338 22.1655 461.1 22.9032 461.1 23.8059C461.1 25.1648 461.586 26.218 462.556 26.9654C463.527 27.7031 464.745 28.0719 466.211 28.0719ZM485.152 15.9583V29.9355H482.561V7.57191H485.079V11.0808H485.312C485.837 9.93543 486.652 9.01817 487.758 8.32901C488.875 7.63015 490.253 7.28072 491.893 7.28072C493.398 7.28072 494.718 7.59618 495.854 8.22709C496.999 8.84831 497.887 9.76556 498.518 10.9789C499.159 12.1922 499.479 13.6821 499.479 15.4487V29.9355H496.887V15.6088C496.887 13.7743 496.373 12.3232 495.344 11.2555C494.325 10.1878 492.956 9.65394 491.238 9.65394C490.064 9.65394 489.02 9.90631 488.108 10.411C487.195 10.9158 486.472 11.6438 485.938 12.595C485.414 13.5365 485.152 14.6576 485.152 15.9583ZM512.673 30.4451C511.324 30.4451 510.091 30.1831 508.975 29.6589C507.858 29.1251 506.97 28.3583 506.31 27.3585C505.65 26.349 505.32 25.126 505.32 23.6895C505.32 22.5829 505.529 21.6511 505.946 20.894C506.364 20.1369 506.956 19.5157 507.723 19.0304C508.489 18.545 509.397 18.1616 510.445 17.8801C511.493 17.5987 512.649 17.3803 513.91 17.225C515.163 17.0697 516.221 16.9338 517.084 16.8173C517.958 16.7008 518.623 16.5164 519.079 16.264C519.535 16.0117 519.763 15.604 519.763 15.041V14.5169C519.763 12.993 519.307 11.7942 518.395 10.9206C517.492 10.0373 516.191 9.5957 514.493 9.5957C512.882 9.5957 511.566 9.94999 510.547 10.6586C509.538 11.3671 508.829 12.2019 508.421 13.1628L505.961 12.2747C506.466 11.0517 507.164 10.0762 508.057 9.34819C508.95 8.6105 509.95 8.0815 511.057 7.76119C512.163 7.43117 513.284 7.26616 514.42 7.26616C515.274 7.26616 516.162 7.37778 517.084 7.60103C518.016 7.82428 518.88 8.21253 519.676 8.7658C520.472 9.30936 521.117 10.0713 521.612 11.0517C522.107 12.0223 522.355 13.255 522.355 14.7498V29.9355H519.763V26.3975H519.603C519.293 27.0576 518.832 27.6982 518.22 28.3194C517.609 28.9406 516.842 29.4502 515.92 29.8482C514.998 30.2462 513.915 30.4451 512.673 30.4451ZM513.022 28.0719C514.401 28.0719 515.594 27.7662 516.604 27.1547C517.613 26.5431 518.39 25.7327 518.933 24.7232C519.487 23.704 519.763 22.5829 519.763 21.3599V18.1277C519.569 18.3121 519.244 18.4771 518.788 18.6227C518.341 18.7683 517.822 18.8993 517.23 19.0158C516.648 19.1226 516.065 19.2148 515.483 19.2924C514.9 19.3701 514.376 19.438 513.91 19.4963C512.649 19.6516 511.571 19.8942 510.678 20.2243C509.785 20.5543 509.101 21.0105 508.625 21.5929C508.15 22.1655 507.912 22.9032 507.912 23.8059C507.912 25.1648 508.397 26.218 509.368 26.9654C510.338 27.7031 511.557 28.0719 513.022 28.0719ZM537.904 38.7878C536.38 38.7878 535.045 38.5888 533.9 38.1909C532.755 37.8026 531.789 37.2688 531.003 36.5893C530.216 35.9099 529.605 35.1479 529.168 34.3034L531.294 32.9057C531.614 33.4687 532.041 34.022 532.575 34.5655C533.119 35.1091 533.822 35.5604 534.686 35.9196C535.56 36.2787 536.632 36.4583 537.904 36.4583C539.884 36.4583 541.481 35.9632 542.694 34.9732C543.917 33.9831 544.529 32.4447 544.529 30.3578V25.3201H544.296C543.995 25.9996 543.563 26.679 543 27.3585C542.437 28.0282 541.699 28.5864 540.787 29.0328C539.884 29.4793 538.763 29.7026 537.424 29.7026C535.638 29.7026 534.051 29.2609 532.663 28.3777C531.284 27.4944 530.197 26.2325 529.401 24.5922C528.615 22.9421 528.222 20.9765 528.222 18.6955C528.222 16.4339 528.605 14.4441 529.372 12.726C530.149 11.008 531.231 9.6685 532.619 8.70756C534.007 7.74663 535.623 7.26616 537.467 7.26616C538.836 7.26616 539.971 7.50882 540.874 7.99414C541.777 8.46976 542.5 9.06185 543.044 9.77042C543.597 10.479 544.029 11.1681 544.339 11.8379H544.601V7.57191H547.135V30.5179C547.135 32.4107 546.732 33.9686 545.926 35.1916C545.121 36.4146 544.024 37.3173 542.636 37.8997C541.248 38.4918 539.671 38.7878 537.904 38.7878ZM537.729 27.3294C539.166 27.3294 540.394 26.9848 541.413 26.2956C542.432 25.5968 543.213 24.597 543.757 23.2963C544.301 21.9957 544.572 20.4475 544.572 18.6518C544.572 16.9047 544.305 15.3565 543.772 14.0073C543.238 12.6484 542.461 11.5807 541.442 10.8042C540.433 10.0179 539.195 9.62482 537.729 9.62482C536.234 9.62482 534.973 10.0276 533.944 10.8333C532.915 11.6389 532.138 12.726 531.614 14.0946C531.09 15.4535 530.828 16.9726 530.828 18.6518C530.828 20.3601 531.095 21.8695 531.629 23.1799C532.163 24.4805 532.944 25.4997 533.973 26.2374C535.002 26.9654 536.254 27.3294 537.729 27.3294ZM563.161 30.4015C561.074 30.4015 559.268 29.9161 557.744 28.9455C556.22 27.9651 555.041 26.6111 554.206 24.8833C553.381 23.1459 552.969 21.1464 552.969 18.8848C552.969 16.6329 553.381 14.6333 554.206 12.8862C555.041 11.1293 556.191 9.75586 557.657 8.7658C559.132 7.76604 560.836 7.26616 562.767 7.26616C563.981 7.26616 565.15 7.48941 566.276 7.9359C567.402 8.37269 568.412 9.04729 569.305 9.95969C570.207 10.8624 570.921 12.0029 571.445 13.3812C571.969 14.7498 572.231 16.3708 572.231 18.2441V19.5254H554.76V17.2395H569.581C569.581 15.803 569.29 14.512 568.708 13.3667C568.135 12.2116 567.334 11.2992 566.305 10.6294C565.286 9.95969 564.107 9.62482 562.767 9.62482C561.35 9.62482 560.103 10.0034 559.026 10.7605C557.948 11.5176 557.104 12.5173 556.492 13.7598C555.89 15.0022 555.585 16.3611 555.575 17.8365V19.2051C555.575 20.9814 555.881 22.5344 556.492 23.8642C557.113 25.1842 557.992 26.2083 559.128 26.9363C560.263 27.6642 561.608 28.0282 563.161 28.0282C564.219 28.0282 565.146 27.8632 565.941 27.5332C566.747 27.2032 567.422 26.7615 567.965 26.2083C568.519 25.6453 568.936 25.0289 569.217 24.3592L571.678 25.16C571.338 26.1015 570.78 26.9702 570.004 27.7662C569.237 28.5621 568.276 29.2027 567.121 29.688C565.975 30.1636 564.655 30.4015 563.161 30.4015ZM586.117 30.4015C584.282 30.4015 582.676 29.9161 581.298 28.9455C579.919 27.9748 578.842 26.6208 578.065 24.8833C577.298 23.1459 576.915 21.1221 576.915 18.812C576.915 16.5115 577.298 14.4975 578.065 12.7697C578.842 11.0323 579.924 9.68306 581.312 8.72212C582.7 7.75148 584.316 7.26616 586.16 7.26616C587.519 7.26616 588.65 7.50882 589.553 7.99414C590.456 8.46976 591.179 9.06185 591.722 9.77042C592.266 10.479 592.688 11.1681 592.989 11.8379H593.222V0.117364H595.828V29.9355H593.295V25.786H592.989C592.688 26.4655 592.261 27.1644 591.708 27.8826C591.154 28.5912 590.422 29.1882 589.509 29.6735C588.606 30.1588 587.476 30.4015 586.117 30.4015ZM586.423 28.0282C587.869 28.0282 589.101 27.6351 590.121 26.8489C591.14 26.053 591.916 24.961 592.45 23.573C592.994 22.1752 593.266 20.5737 593.266 18.7683C593.266 16.9823 592.999 15.405 592.465 14.0364C591.931 12.6581 591.154 11.5807 590.135 10.8042C589.116 10.0179 587.878 9.62482 586.423 9.62482C584.928 9.62482 583.666 10.0325 582.637 10.8478C581.618 11.6535 580.841 12.7454 580.307 14.1238C579.783 15.5021 579.521 17.0502 579.521 18.7683C579.521 20.5057 579.788 22.0733 580.322 23.4711C580.856 24.8688 581.632 25.9802 582.652 26.8052C583.68 27.6206 584.937 28.0282 586.423 28.0282ZM615.016 29.9355V7.57191H617.622V29.9355H615.016ZM616.341 3.72816C615.807 3.72816 615.351 3.54859 614.973 3.18945C614.594 2.82061 614.405 2.37897 614.405 1.86452C614.405 1.35008 614.594 0.913293 614.973 0.554155C615.351 0.185309 615.807 0.000885785 616.341 0.000885785C616.875 0.000885785 617.331 0.185309 617.71 0.554155C618.088 0.913293 618.278 1.35008 618.278 1.86452C618.278 2.37897 618.088 2.82061 617.71 3.18945C617.331 3.54859 616.875 3.72816 616.341 3.72816ZM627.191 15.9583V29.9355H624.599V7.57191H627.118V11.0808H627.351C627.875 9.93543 628.691 9.01817 629.797 8.32901C630.913 7.63015 632.292 7.28072 633.932 7.28072C635.437 7.28072 636.757 7.59618 637.892 8.22709C639.038 8.84831 639.926 9.76556 640.557 10.9789C641.197 12.1922 641.518 13.6821 641.518 15.4487V29.9355H638.926V15.6088C638.926 13.7743 638.412 12.3232 637.383 11.2555C636.364 10.1878 634.995 9.65394 633.277 9.65394C632.102 9.65394 631.059 9.90631 630.147 10.411C629.234 10.9158 628.511 11.6438 627.977 12.595C627.453 13.5365 627.191 14.6576 627.191 15.9583ZM657.274 7.57191V9.82866H646.602V7.57191H657.274ZM649.936 2.21396H652.542V24.0971C652.542 25.0289 652.702 25.7618 653.023 26.2956C653.343 26.8198 653.76 27.1935 654.275 27.4167C654.789 27.6303 655.338 27.737 655.92 27.737C656.26 27.737 656.551 27.7176 656.794 27.6788C657.036 27.6303 657.25 27.5817 657.434 27.5332L657.987 29.8773C657.735 29.9744 657.425 30.0617 657.056 30.1394C656.687 30.2267 656.231 30.2704 655.687 30.2704C654.736 30.2704 653.819 30.0617 652.935 29.6444C652.062 29.227 651.343 28.6058 650.78 27.7807C650.217 26.9557 649.936 25.9316 649.936 24.7086V2.21396ZM672.084 30.4015C669.997 30.4015 668.192 29.9161 666.668 28.9455C665.144 27.9651 663.965 26.6111 663.13 24.8833C662.305 23.1459 661.892 21.1464 661.892 18.8848C661.892 16.6329 662.305 14.6333 663.13 12.8862C663.965 11.1293 665.115 9.75586 666.581 8.7658C668.056 7.76604 669.759 7.26616 671.691 7.26616C672.904 7.26616 674.074 7.48941 675.2 7.9359C676.326 8.37269 677.335 9.04729 678.228 9.95969C679.131 10.8624 679.844 12.0029 680.369 13.3812C680.893 14.7498 681.155 16.3708 681.155 18.2441V19.5254H663.683V17.2395H678.505C678.505 15.803 678.214 14.512 677.631 13.3667C677.059 12.2116 676.258 11.2992 675.229 10.6294C674.21 9.95969 673.03 9.62482 671.691 9.62482C670.274 9.62482 669.027 10.0034 667.949 10.7605C666.872 11.5176 666.027 12.5173 665.416 13.7598C664.814 15.0022 664.508 16.3611 664.499 17.8365V19.2051C664.499 20.9814 664.804 22.5344 665.416 23.8642C666.037 25.1842 666.915 26.2083 668.051 26.9363C669.187 27.6642 670.531 28.0282 672.084 28.0282C673.142 28.0282 674.069 27.8632 674.865 27.5332C675.671 27.2032 676.345 26.7615 676.889 26.2083C677.442 25.6453 677.859 25.0289 678.141 24.3592L680.602 25.16C680.262 26.1015 679.704 26.9702 678.927 27.7662C678.16 28.5621 677.199 29.2027 676.044 29.688C674.899 30.1636 673.579 30.4015 672.084 30.4015ZM686.989 29.9355V7.57191H689.508V11.008H689.697C690.143 9.88204 690.92 8.97449 692.026 8.28533C693.143 7.58647 694.405 7.23704 695.812 7.23704C696.026 7.23704 696.263 7.24189 696.525 7.2516C696.787 7.2613 697.006 7.27101 697.181 7.28072V9.91602C697.064 9.8966 696.86 9.86748 696.569 9.82866C696.278 9.78983 695.962 9.77042 695.623 9.77042C694.458 9.77042 693.419 10.0179 692.507 10.513C691.604 10.9983 690.891 11.6729 690.367 12.5368C689.843 13.4006 689.58 14.3858 689.58 15.4924V29.9355H686.989ZM704.318 15.9583V29.9355H701.726V7.57191H704.245V11.0808H704.478C705.002 9.93543 705.817 9.01817 706.924 8.32901C708.04 7.63015 709.418 7.28072 711.059 7.28072C712.563 7.28072 713.883 7.59618 715.019 8.22709C716.164 8.84831 717.053 9.76556 717.683 10.9789C718.324 12.1922 718.644 13.6821 718.644 15.4487V29.9355H716.053V15.6088C716.053 13.7743 715.538 12.3232 714.509 11.2555C713.49 10.1878 712.122 9.65394 710.404 9.65394C709.229 9.65394 708.186 9.90631 707.273 10.411C706.361 10.9158 705.638 11.6438 705.104 12.595C704.58 13.5365 704.318 14.6576 704.318 15.9583ZM731.838 30.4451C730.489 30.4451 729.256 30.1831 728.14 29.6589C727.024 29.1251 726.136 28.3583 725.476 27.3585C724.816 26.349 724.486 25.126 724.486 23.6895C724.486 22.5829 724.694 21.6511 725.112 20.894C725.529 20.1369 726.121 19.5157 726.888 19.0304C727.655 18.545 728.562 18.1616 729.611 17.8801C730.659 17.5987 731.814 17.3803 733.076 17.225C734.328 17.0697 735.386 16.9338 736.25 16.8173C737.123 16.7008 737.788 16.5164 738.245 16.264C738.701 16.0117 738.929 15.604 738.929 15.041V14.5169C738.929 12.993 738.473 11.7942 737.56 10.9206C736.658 10.0373 735.357 9.5957 733.658 9.5957C732.047 9.5957 730.732 9.94999 729.713 10.6586C728.703 11.3671 727.995 12.2019 727.587 13.1628L725.126 12.2747C725.631 11.0517 726.33 10.0762 727.223 9.34819C728.116 8.6105 729.116 8.0815 730.222 7.76119C731.329 7.43117 732.45 7.26616 733.585 7.26616C734.44 7.26616 735.328 7.37778 736.25 7.60103C737.182 7.82428 738.046 8.21253 738.842 8.7658C739.637 9.30936 740.283 10.0713 740.778 11.0517C741.273 12.0223 741.521 13.255 741.521 14.7498V29.9355H738.929V26.3975H738.769C738.458 27.0576 737.997 27.6982 737.386 28.3194C736.774 28.9406 736.007 29.4502 735.085 29.8482C734.163 30.2462 733.081 30.4451 731.838 30.4451ZM732.188 28.0719C733.566 28.0719 734.76 27.7662 735.769 27.1547C736.779 26.5431 737.555 25.7327 738.099 24.7232C738.652 23.704 738.929 22.5829 738.929 21.3599V18.1277C738.735 18.3121 738.41 18.4771 737.953 18.6227C737.507 18.7683 736.988 18.8993 736.396 19.0158C735.813 19.1226 735.231 19.2148 734.648 19.2924C734.066 19.3701 733.542 19.438 733.076 19.4963C731.814 19.6516 730.737 19.8942 729.844 20.2243C728.951 20.5543 728.266 21.0105 727.791 21.5929C727.315 22.1655 727.077 22.9032 727.077 23.8059C727.077 25.1648 727.563 26.218 728.533 26.9654C729.504 27.7031 730.722 28.0719 732.188 28.0719ZM751.129 0.117364V29.9355H748.537V0.117364H751.129ZM760.701 0.117364V29.9355H758.11V0.117364H760.701ZM769.487 38.3219C768.973 38.3219 768.492 38.2734 768.046 38.1763C767.599 38.0792 767.245 37.9725 766.983 37.856L767.682 35.5701C768.565 35.8419 769.351 35.939 770.041 35.8613C770.73 35.7934 771.341 35.4828 771.875 34.9295C772.409 34.3859 772.885 33.5512 773.302 32.4252L774.117 30.1539L765.891 7.57191H768.701L775.34 26.514H775.544L782.183 7.57191H784.993L775.53 33.4735C775.132 34.551 774.641 35.4488 774.059 36.1671C773.477 36.8951 772.802 37.4338 772.035 37.7832C771.278 38.1423 770.429 38.3219 769.487 38.3219ZM790.853 30.1539C790.28 30.1539 789.785 29.9501 789.368 29.5424C788.96 29.1251 788.756 28.63 788.756 28.0574C788.756 27.475 788.96 26.9799 789.368 26.5723C789.785 26.1646 790.28 25.9608 790.853 25.9608C791.435 25.9608 791.93 26.1646 792.338 26.5723C792.746 26.9799 792.949 27.475 792.949 28.0574C792.949 28.4359 792.852 28.7853 792.658 29.1056C792.474 29.426 792.221 29.6832 791.901 29.8773C791.591 30.0617 791.241 30.1539 790.853 30.1539ZM820.848 29.9355H812.112V0.117364H821.372C824.216 0.117364 826.648 0.709457 828.666 1.89364C830.695 3.07783 832.248 4.77646 833.326 6.98952C834.403 9.20259 834.942 11.8573 834.942 14.9537C834.942 18.0791 834.388 20.763 833.282 23.0051C832.185 25.2376 830.583 26.9508 828.477 28.1447C826.381 29.3386 823.838 29.9355 820.848 29.9355ZM814.835 27.4895H820.688C823.25 27.4895 825.395 26.9848 827.123 25.9753C828.851 24.9658 830.147 23.5244 831.011 21.6511C831.874 19.7778 832.306 17.5453 832.306 14.9537C832.297 12.3815 831.87 10.1684 831.025 8.31445C830.19 6.46052 828.948 5.03853 827.298 4.04847C825.657 3.05841 823.629 2.56339 821.212 2.56339H814.835V27.4895ZM841.154 29.9355V7.57191H843.76V29.9355H841.154ZM842.479 3.72816C841.945 3.72816 841.489 3.54859 841.111 3.18945C840.732 2.82061 840.543 2.37897 840.543 1.86452C840.543 1.35008 840.732 0.913293 841.111 0.554155C841.489 0.185309 841.945 0.000885785 842.479 0.000885785C843.013 0.000885785 843.469 0.185309 843.848 0.554155C844.226 0.913293 844.416 1.35008 844.416 1.86452C844.416 2.37897 844.226 2.82061 843.848 3.18945C843.469 3.54859 843.013 3.72816 842.479 3.72816ZM850.737 29.9355V7.57191H853.256V11.008H853.445C853.892 9.88204 854.668 8.97449 855.775 8.28533C856.891 7.58647 858.153 7.23704 859.561 7.23704C859.774 7.23704 860.012 7.24189 860.274 7.2516C860.536 7.2613 860.754 7.27101 860.929 7.28072V9.91602C860.813 9.8966 860.609 9.86748 860.318 9.82866C860.026 9.78983 859.711 9.77042 859.371 9.77042C858.206 9.77042 857.168 10.0179 856.255 10.513C855.353 10.9983 854.639 11.6729 854.115 12.5368C853.591 13.4006 853.329 14.3858 853.329 15.4924V29.9355H850.737ZM873.836 30.4015C871.749 30.4015 869.943 29.9161 868.419 28.9455C866.895 27.9651 865.716 26.6111 864.881 24.8833C864.056 23.1459 863.644 21.1464 863.644 18.8848C863.644 16.6329 864.056 14.6333 864.881 12.8862C865.716 11.1293 866.866 9.75586 868.332 8.7658C869.807 7.76604 871.511 7.26616 873.442 7.26616C874.656 7.26616 875.825 7.48941 876.951 7.9359C878.077 8.37269 879.087 9.04729 879.98 9.95969C880.882 10.8624 881.596 12.0029 882.12 13.3812C882.644 14.7498 882.906 16.3708 882.906 18.2441V19.5254H865.435V17.2395H880.256C880.256 15.803 879.965 14.512 879.383 13.3667C878.81 12.2116 878.009 11.2992 876.98 10.6294C875.961 9.95969 874.782 9.62482 873.442 9.62482C872.025 9.62482 870.778 10.0034 869.701 10.7605C868.623 11.5176 867.779 12.5173 867.167 13.7598C866.565 15.0022 866.26 16.3611 866.25 17.8365V19.2051C866.25 20.9814 866.556 22.5344 867.167 23.8642C867.788 25.1842 868.667 26.2083 869.802 26.9363C870.938 27.6642 872.282 28.0282 873.836 28.0282C874.894 28.0282 875.82 27.8632 876.616 27.5332C877.422 27.2032 878.097 26.7615 878.64 26.2083C879.193 25.6453 879.611 25.0289 879.892 24.3592L882.353 25.16C882.013 26.1015 881.455 26.9702 880.679 27.7662C879.912 28.5621 878.951 29.2027 877.796 29.688C876.65 30.1636 875.33 30.4015 873.836 30.4015ZM897.476 30.4015C895.476 30.4015 893.734 29.9016 892.249 28.9018C890.774 27.902 889.628 26.5334 888.813 24.796C887.998 23.0585 887.59 21.0784 887.59 18.8556C887.59 16.6135 888.002 14.6188 888.828 12.8716C889.662 11.1245 890.817 9.75586 892.293 8.7658C893.768 7.76604 895.481 7.26616 897.432 7.26616C898.927 7.26616 900.281 7.55735 901.494 8.13974C902.708 8.71242 903.708 9.5229 904.494 10.5712C905.29 11.6098 905.79 12.8231 905.993 14.2111H903.373C903.101 12.9493 902.446 11.8719 901.407 10.9789C900.378 10.0762 899.068 9.62482 897.476 9.62482C896.049 9.62482 894.787 10.0131 893.69 10.7896C892.594 11.5564 891.735 12.629 891.113 14.0073C890.502 15.3759 890.196 16.9629 890.196 18.7683C890.196 20.5834 890.497 22.1898 891.099 23.5875C891.701 24.9756 892.545 26.0627 893.632 26.8489C894.729 27.6351 896.01 28.0282 897.476 28.0282C898.466 28.0282 899.369 27.8438 900.184 27.475C901.009 27.0964 901.698 26.5626 902.252 25.8734C902.815 25.1842 903.193 24.3641 903.387 23.4128H906.008C905.814 24.762 905.333 25.9656 904.567 27.0236C903.809 28.0719 902.824 28.897 901.611 29.4988C900.407 30.1006 899.029 30.4015 897.476 30.4015ZM920.494 7.57191V9.82866H909.822V7.57191H920.494ZM913.156 2.21396H915.762V24.0971C915.762 25.0289 915.922 25.7618 916.243 26.2956C916.563 26.8198 916.98 27.1935 917.495 27.4167C918.009 27.6303 918.558 27.737 919.14 27.737C919.48 27.737 919.771 27.7176 920.014 27.6788C920.256 27.6303 920.47 27.5817 920.654 27.5332L921.208 29.8773C920.955 29.9744 920.645 30.0617 920.276 30.1394C919.907 30.2267 919.451 30.2704 918.907 30.2704C917.956 30.2704 917.039 30.0617 916.155 29.6444C915.282 29.227 914.563 28.6058 914 27.7807C913.438 26.9557 913.156 25.9316 913.156 24.7086V2.21396ZM938.157 29.9355V7.57191H940.676V11.008H940.909C941.355 9.85292 942.098 8.94537 943.136 8.28533C944.185 7.61559 945.442 7.28072 946.907 7.28072C948.451 7.28072 949.717 7.64471 950.707 8.37269C951.707 9.09097 952.455 10.081 952.95 11.3429H953.139C953.644 10.1004 954.464 9.11523 955.6 8.38725C956.745 7.64956 958.133 7.28072 959.764 7.28072C961.841 7.28072 963.481 7.9359 964.685 9.24627C965.888 10.5469 966.49 12.4494 966.49 14.9537V29.9355H963.899V14.9537C963.899 13.1871 963.447 11.8622 962.544 10.9789C961.642 10.0956 960.453 9.65394 958.977 9.65394C957.269 9.65394 955.954 10.1781 955.032 11.2264C954.11 12.2747 953.649 13.6045 953.649 15.2157V29.9355H950.999V14.7207C950.999 13.2065 950.576 11.9835 949.732 11.0517C948.888 10.1199 947.698 9.65394 946.165 9.65394C945.136 9.65394 944.209 9.90631 943.384 10.411C942.569 10.9158 941.923 11.6195 941.448 12.5222C940.982 13.4152 940.749 14.4441 940.749 15.6088V29.9355H938.157ZM982.516 30.4015C980.429 30.4015 978.624 29.9161 977.1 28.9455C975.576 27.9651 974.396 26.6111 973.562 24.8833C972.737 23.1459 972.324 21.1464 972.324 18.8848C972.324 16.6329 972.737 14.6333 973.562 12.8862C974.396 11.1293 975.547 9.75586 977.012 8.7658C978.488 7.76604 980.191 7.26616 982.123 7.26616C983.336 7.26616 984.506 7.48941 985.632 7.9359C986.758 8.37269 987.767 9.04729 988.66 9.95969C989.563 10.8624 990.276 12.0029 990.8 13.3812C991.325 14.7498 991.587 16.3708 991.587 18.2441V19.5254H974.115V17.2395H988.937C988.937 15.803 988.646 14.512 988.063 13.3667C987.49 12.2116 986.69 11.2992 985.661 10.6294C984.642 9.95969 983.462 9.62482 982.123 9.62482C980.706 9.62482 979.458 10.0034 978.381 10.7605C977.304 11.5176 976.459 12.5173 975.848 13.7598C975.246 15.0022 974.94 16.3611 974.93 17.8365V19.2051C974.93 20.9814 975.236 22.5344 975.848 23.8642C976.469 25.1842 977.347 26.2083 978.483 26.9363C979.619 27.6642 980.963 28.0282 982.516 28.0282C983.574 28.0282 984.501 27.8632 985.297 27.5332C986.102 27.2032 986.777 26.7615 987.321 26.2083C987.874 25.6453 988.291 25.0289 988.573 24.3592L991.033 25.16C990.694 26.1015 990.135 26.9702 989.359 27.7662C988.592 28.5621 987.631 29.2027 986.476 29.688C985.331 30.1636 984.011 30.4015 982.516 30.4015ZM1000.01 15.9583V29.9355H997.421V7.57191H999.939V11.0808H1000.17C1000.7 9.93543 1001.51 9.01817 1002.62 8.32901C1003.73 7.63015 1005.11 7.28072 1006.75 7.28072C1008.26 7.28072 1009.58 7.59618 1010.71 8.22709C1011.86 8.84831 1012.75 9.76556 1013.38 10.9789C1014.02 12.1922 1014.34 13.6821 1014.34 15.4487V29.9355H1011.75V15.6088C1011.75 13.7743 1011.23 12.3232 1010.2 11.2555C1009.18 10.1878 1007.82 9.65394 1006.1 9.65394C1004.92 9.65394 1003.88 9.90631 1002.97 10.411C1002.06 10.9158 1001.33 11.6438 1000.8 12.595C1000.27 13.5365 1000.01 14.6576 1000.01 15.9583ZM1030.1 7.57191V9.82866H1019.42V7.57191H1030.1ZM1022.76 2.21396H1025.36V24.0971C1025.36 25.0289 1025.52 25.7618 1025.84 26.2956C1026.16 26.8198 1026.58 27.1935 1027.1 27.4167C1027.61 27.6303 1028.16 27.737 1028.74 27.737C1029.08 27.737 1029.37 27.7176 1029.61 27.6788C1029.86 27.6303 1030.07 27.5817 1030.26 27.5332L1030.81 29.8773C1030.56 29.9744 1030.25 30.0617 1029.88 30.1394C1029.51 30.2267 1029.05 30.2704 1028.51 30.2704C1027.56 30.2704 1026.64 30.0617 1025.76 29.6444C1024.88 29.227 1024.16 28.6058 1023.6 27.7807C1023.04 26.9557 1022.76 25.9316 1022.76 24.7086V2.21396ZM1044.56 30.4015C1042.62 30.4015 1040.92 29.9113 1039.43 28.9309C1037.96 27.9506 1036.8 26.5965 1035.97 24.8688C1035.13 23.1313 1034.71 21.127 1034.71 18.8556C1034.71 16.5649 1035.13 14.5508 1035.97 12.8134C1036.8 11.0662 1037.96 9.70733 1039.43 8.73668C1040.92 7.75633 1042.62 7.26616 1044.56 7.26616C1046.49 7.26616 1048.19 7.75633 1049.67 8.73668C1051.14 9.71703 1052.3 11.0759 1053.13 12.8134C1053.98 14.5508 1054.4 16.5649 1054.4 18.8556C1054.4 21.127 1053.98 23.1313 1053.15 24.8688C1052.31 26.5965 1051.15 27.9506 1049.67 28.9309C1048.19 29.9113 1046.49 30.4015 1044.56 30.4015ZM1044.56 28.0282C1046.11 28.0282 1047.42 27.6109 1048.5 26.7761C1049.58 25.9413 1050.39 24.83 1050.95 23.4419C1051.51 22.0539 1051.79 20.5252 1051.79 18.8556C1051.79 17.1861 1051.51 15.6525 1050.95 14.2548C1050.39 12.8571 1049.58 11.736 1048.5 10.8915C1047.42 10.0471 1046.11 9.62482 1044.56 9.62482C1043.01 9.62482 1041.7 10.0471 1040.61 10.8915C1039.53 11.736 1038.71 12.8571 1038.15 14.2548C1037.6 15.6525 1037.32 17.1861 1037.32 18.8556C1037.32 20.5252 1037.6 22.0539 1038.15 23.4419C1038.71 24.83 1039.53 25.9413 1040.61 26.7761C1041.69 27.6109 1043 28.0282 1044.56 28.0282ZM1060.21 29.9355V7.57191H1062.73V11.008H1062.92C1063.37 9.88204 1064.14 8.97449 1065.25 8.28533C1066.36 7.58647 1067.63 7.23704 1069.03 7.23704C1069.25 7.23704 1069.49 7.24189 1069.75 7.2516C1070.01 7.2613 1070.23 7.27101 1070.4 7.28072V9.91602C1070.29 9.8966 1070.08 9.86748 1069.79 9.82866C1069.5 9.78983 1069.18 9.77042 1068.84 9.77042C1067.68 9.77042 1066.64 10.0179 1065.73 10.513C1064.83 10.9983 1064.11 11.6729 1063.59 12.5368C1063.06 13.4006 1062.8 14.3858 1062.8 15.4924V29.9355H1060.21ZM1092.85 30.4451C1091.5 30.4451 1090.27 30.1831 1089.15 29.6589C1088.03 29.1251 1087.15 28.3583 1086.49 27.3585C1085.83 26.349 1085.5 25.126 1085.5 23.6895C1085.5 22.5829 1085.7 21.6511 1086.12 20.894C1086.54 20.1369 1087.13 19.5157 1087.9 19.0304C1088.66 18.545 1089.57 18.1616 1090.62 17.8801C1091.67 17.5987 1092.82 17.3803 1094.09 17.225C1095.34 17.0697 1096.4 16.9338 1097.26 16.8173C1098.13 16.7008 1098.8 16.5164 1099.25 16.264C1099.71 16.0117 1099.94 15.604 1099.94 15.041V14.5169C1099.94 12.993 1099.48 11.7942 1098.57 10.9206C1097.67 10.0373 1096.37 9.5957 1094.67 9.5957C1093.06 9.5957 1091.74 9.94999 1090.72 10.6586C1089.71 11.3671 1089 12.2019 1088.6 13.1628L1086.14 12.2747C1086.64 11.0517 1087.34 10.0762 1088.23 9.34819C1089.13 8.6105 1090.13 8.0815 1091.23 7.76119C1092.34 7.43117 1093.46 7.26616 1094.6 7.26616C1095.45 7.26616 1096.34 7.37778 1097.26 7.60103C1098.19 7.82428 1099.06 8.21253 1099.85 8.7658C1100.65 9.30936 1101.29 10.0713 1101.79 11.0517C1102.28 12.0223 1102.53 13.255 1102.53 14.7498V29.9355H1099.94V26.3975H1099.78C1099.47 27.0576 1099.01 27.6982 1098.4 28.3194C1097.78 28.9406 1097.02 29.4502 1096.09 29.8482C1095.17 30.2462 1094.09 30.4451 1092.85 30.4451ZM1093.2 28.0719C1094.58 28.0719 1095.77 27.7662 1096.78 27.1547C1097.79 26.5431 1098.57 25.7327 1099.11 24.7232C1099.66 23.704 1099.94 22.5829 1099.94 21.3599V18.1277C1099.74 18.3121 1099.42 18.4771 1098.96 18.6227C1098.52 18.7683 1098 18.8993 1097.41 19.0158C1096.82 19.1226 1096.24 19.2148 1095.66 19.2924C1095.08 19.3701 1094.55 19.438 1094.09 19.4963C1092.82 19.6516 1091.75 19.8942 1090.85 20.2243C1089.96 20.5543 1089.28 21.0105 1088.8 21.5929C1088.32 22.1655 1088.09 22.9032 1088.09 23.8059C1088.09 25.1648 1088.57 26.218 1089.54 26.9654C1090.51 27.7031 1091.73 28.0719 1093.2 28.0719ZM1118.28 30.4015C1116.28 30.4015 1114.54 29.9016 1113.06 28.9018C1111.58 27.902 1110.44 26.5334 1109.62 24.796C1108.8 23.0585 1108.4 21.0784 1108.4 18.8556C1108.4 16.6135 1108.81 14.6188 1109.63 12.8716C1110.47 11.1245 1111.62 9.75586 1113.1 8.7658C1114.58 7.76604 1116.29 7.26616 1118.24 7.26616C1119.73 7.26616 1121.09 7.55735 1122.3 8.13974C1123.51 8.71242 1124.51 9.5229 1125.3 10.5712C1126.1 11.6098 1126.6 12.8231 1126.8 14.2111H1124.18C1123.91 12.9493 1123.25 11.8719 1122.21 10.9789C1121.19 10.0762 1119.87 9.62482 1118.28 9.62482C1116.86 9.62482 1115.59 10.0131 1114.5 10.7896C1113.4 11.5564 1112.54 12.629 1111.92 14.0073C1111.31 15.3759 1111 16.9629 1111 18.7683C1111 20.5834 1111.3 22.1898 1111.91 23.5875C1112.51 24.9756 1113.35 26.0627 1114.44 26.8489C1115.54 27.6351 1116.82 28.0282 1118.28 28.0282C1119.27 28.0282 1120.18 27.8438 1120.99 27.475C1121.82 27.0964 1122.51 26.5626 1123.06 25.8734C1123.62 25.1842 1124 24.3641 1124.19 23.4128H1126.82C1126.62 24.762 1126.14 25.9656 1125.37 27.0236C1124.62 28.0719 1123.63 28.897 1122.42 29.4988C1121.21 30.1006 1119.84 30.4015 1118.28 30.4015ZM1141.23 30.4015C1139.23 30.4015 1137.49 29.9016 1136 28.9018C1134.53 27.902 1133.38 26.5334 1132.57 24.796C1131.75 23.0585 1131.34 21.0784 1131.34 18.8556C1131.34 16.6135 1131.75 14.6188 1132.58 12.8716C1133.41 11.1245 1134.57 9.75586 1136.05 8.7658C1137.52 7.76604 1139.23 7.26616 1141.18 7.26616C1142.68 7.26616 1144.03 7.55735 1145.25 8.13974C1146.46 8.71242 1147.46 9.5229 1148.25 10.5712C1149.04 11.6098 1149.54 12.8231 1149.75 14.2111H1147.13C1146.85 12.9493 1146.2 11.8719 1145.16 10.9789C1144.13 10.0762 1142.82 9.62482 1141.23 9.62482C1139.8 9.62482 1138.54 10.0131 1137.44 10.7896C1136.35 11.5564 1135.49 12.629 1134.87 14.0073C1134.25 15.3759 1133.95 16.9629 1133.95 18.7683C1133.95 20.5834 1134.25 22.1898 1134.85 23.5875C1135.45 24.9756 1136.3 26.0627 1137.38 26.8489C1138.48 27.6351 1139.76 28.0282 1141.23 28.0282C1142.22 28.0282 1143.12 27.8438 1143.94 27.475C1144.76 27.0964 1145.45 26.5626 1146 25.8734C1146.57 25.1842 1146.95 24.3641 1147.14 23.4128H1149.76C1149.57 24.762 1149.09 25.9656 1148.32 27.0236C1147.56 28.0719 1146.58 28.897 1145.36 29.4988C1144.16 30.1006 1142.78 30.4015 1141.23 30.4015ZM1164.48 30.4015C1162.39 30.4015 1160.59 29.9161 1159.06 28.9455C1157.54 27.9651 1156.36 26.6111 1155.53 24.8833C1154.7 23.1459 1154.29 21.1464 1154.29 18.8848C1154.29 16.6329 1154.7 14.6333 1155.53 12.8862C1156.36 11.1293 1157.51 9.75586 1158.98 8.7658C1160.45 7.76604 1162.15 7.26616 1164.09 7.26616C1165.3 7.26616 1166.47 7.48941 1167.6 7.9359C1168.72 8.37269 1169.73 9.04729 1170.62 9.95969C1171.53 10.8624 1172.24 12.0029 1172.76 13.3812C1173.29 14.7498 1173.55 16.3708 1173.55 18.2441V19.5254H1156.08V17.2395H1170.9C1170.9 15.803 1170.61 14.512 1170.03 13.3667C1169.45 12.2116 1168.65 11.2992 1167.62 10.6294C1166.61 9.95969 1165.43 9.62482 1164.09 9.62482C1162.67 9.62482 1161.42 10.0034 1160.34 10.7605C1159.27 11.5176 1158.42 12.5173 1157.81 13.7598C1157.21 15.0022 1156.9 16.3611 1156.89 17.8365V19.2051C1156.89 20.9814 1157.2 22.5344 1157.81 23.8642C1158.43 25.1842 1159.31 26.2083 1160.45 26.9363C1161.58 27.6642 1162.93 28.0282 1164.48 28.0282C1165.54 28.0282 1166.46 27.8632 1167.26 27.5332C1168.07 27.2032 1168.74 26.7615 1169.28 26.2083C1169.84 25.6453 1170.25 25.0289 1170.54 24.3592L1173 25.16C1172.66 26.1015 1172.1 26.9702 1171.32 27.7662C1170.56 28.5621 1169.59 29.2027 1168.44 29.688C1167.29 30.1636 1165.97 30.4015 1164.48 30.4015ZM1194.41 12.4785L1192.04 13.1483C1191.8 12.4785 1191.47 11.8719 1191.05 11.3283C1190.62 10.7847 1190.06 10.3528 1189.37 10.0325C1188.69 9.71218 1187.85 9.55202 1186.84 9.55202C1185.32 9.55202 1184.08 9.91116 1183.11 10.6294C1182.14 11.3477 1181.66 12.2747 1181.66 13.4103C1181.66 14.3713 1181.99 15.1526 1182.65 15.7544C1183.32 16.3465 1184.34 16.8173 1185.73 17.1667L1189.11 17.9966C1190.98 18.4528 1192.39 19.176 1193.32 20.166C1194.26 21.1561 1194.73 22.3985 1194.73 23.8933C1194.73 25.1551 1194.38 26.2762 1193.68 27.2566C1192.98 28.2369 1192.01 29.0086 1190.76 29.5716C1189.51 30.1248 1188.07 30.4015 1186.43 30.4015C1184.25 30.4015 1182.45 29.9113 1181.03 28.9309C1179.61 27.9409 1178.7 26.514 1178.31 24.6504L1180.8 24.0389C1181.12 25.3687 1181.74 26.3733 1182.67 27.0527C1183.62 27.7322 1184.85 28.0719 1186.39 28.0719C1188.11 28.0719 1189.48 27.6885 1190.51 26.9217C1191.54 26.1452 1192.05 25.1745 1192.05 24.0098C1192.05 23.1071 1191.75 22.35 1191.15 21.7385C1190.55 21.1172 1189.63 20.661 1188.41 20.3699L1184.76 19.4963C1182.82 19.0304 1181.38 18.2927 1180.45 17.2832C1179.52 16.2737 1179.05 15.0216 1179.05 13.5268C1179.05 12.2941 1179.38 11.2118 1180.05 10.28C1180.72 9.33848 1181.65 8.60079 1182.82 8.06694C1183.99 7.53308 1185.33 7.26616 1186.84 7.26616C1188.89 7.26616 1190.52 7.73207 1191.75 8.66388C1192.98 9.586 1193.87 10.8575 1194.41 12.4785ZM1215.55 12.4785L1213.18 13.1483C1212.95 12.4785 1212.62 11.8719 1212.19 11.3283C1211.76 10.7847 1211.2 10.3528 1210.52 10.0325C1209.84 9.71218 1208.99 9.55202 1207.98 9.55202C1206.47 9.55202 1205.23 9.91116 1204.25 10.6294C1203.28 11.3477 1202.8 12.2747 1202.8 13.4103C1202.8 14.3713 1203.13 15.1526 1203.79 15.7544C1204.46 16.3465 1205.49 16.8173 1206.88 17.1667L1210.25 17.9966C1212.13 18.4528 1213.53 19.176 1214.46 20.166C1215.4 21.1561 1215.87 22.3985 1215.87 23.8933C1215.87 25.1551 1215.52 26.2762 1214.83 27.2566C1214.13 28.2369 1213.15 29.0086 1211.9 29.5716C1210.66 30.1248 1209.21 30.4015 1207.57 30.4015C1205.39 30.4015 1203.59 29.9113 1202.17 28.9309C1200.76 27.9409 1199.85 26.514 1199.45 24.6504L1201.94 24.0389C1202.26 25.3687 1202.89 26.3733 1203.82 27.0527C1204.76 27.7322 1206 28.0719 1207.53 28.0719C1209.25 28.0719 1210.62 27.6885 1211.65 26.9217C1212.68 26.1452 1213.19 25.1745 1213.19 24.0098C1213.19 23.1071 1212.89 22.35 1212.29 21.7385C1211.69 21.1172 1210.78 20.661 1209.55 20.3699L1205.9 19.4963C1203.96 19.0304 1202.52 18.2927 1201.59 17.2832C1200.66 16.2737 1200.19 15.0216 1200.19 13.5268C1200.19 12.2941 1200.53 11.2118 1201.2 10.28C1201.87 9.33848 1202.79 8.60079 1203.96 8.06694C1205.14 7.53308 1206.48 7.26616 1207.98 7.26616C1210.03 7.26616 1211.67 7.73207 1212.89 8.66388C1214.12 9.586 1215.01 10.8575 1215.55 12.4785ZM1242.02 30.4015C1240.09 30.4015 1238.38 29.9113 1236.89 28.9309C1235.42 27.9506 1234.26 26.5965 1233.43 24.8688C1232.59 23.1313 1232.18 21.127 1232.18 18.8556C1232.18 16.5649 1232.59 14.5508 1233.43 12.8134C1234.26 11.0662 1235.42 9.70733 1236.89 8.73668C1238.38 7.75633 1240.09 7.26616 1242.02 7.26616C1243.95 7.26616 1245.65 7.75633 1247.13 8.73668C1248.6 9.71703 1249.76 11.0759 1250.59 12.8134C1251.44 14.5508 1251.86 16.5649 1251.86 18.8556C1251.86 21.127 1251.44 23.1313 1250.61 24.8688C1249.77 26.5965 1248.61 27.9506 1247.13 28.9309C1245.65 29.9113 1243.95 30.4015 1242.02 30.4015ZM1242.02 28.0282C1243.57 28.0282 1244.89 27.6109 1245.96 26.7761C1247.04 25.9413 1247.86 24.83 1248.41 23.4419C1248.97 22.0539 1249.25 20.5252 1249.25 18.8556C1249.25 17.1861 1248.97 15.6525 1248.41 14.2548C1247.86 12.8571 1247.04 11.736 1245.96 10.8915C1244.89 10.0471 1243.57 9.62482 1242.02 9.62482C1240.47 9.62482 1239.16 10.0471 1238.07 10.8915C1236.99 11.736 1236.17 12.8571 1235.61 14.2548C1235.06 15.6525 1234.78 17.1861 1234.78 18.8556C1234.78 20.5252 1235.06 22.0539 1235.61 23.4419C1236.17 24.83 1236.99 25.9413 1238.07 26.7761C1239.15 27.6109 1240.46 28.0282 1242.02 28.0282ZM1257.67 29.9355V7.57191H1260.19V11.008H1260.38C1260.83 9.88204 1261.6 8.97449 1262.71 8.28533C1263.83 7.58647 1265.09 7.23704 1266.5 7.23704C1266.71 7.23704 1266.95 7.24189 1267.21 7.2516C1267.47 7.2613 1267.69 7.27101 1267.86 7.28072V9.91602C1267.75 9.8966 1267.54 9.86748 1267.25 9.82866C1266.96 9.78983 1266.65 9.77042 1266.31 9.77042C1265.14 9.77042 1264.1 10.0179 1263.19 10.513C1262.29 10.9983 1261.57 11.6729 1261.05 12.5368C1260.53 13.4006 1260.26 14.3858 1260.26 15.4924V29.9355H1257.67ZM208.664 65.4785L206.291 66.1483C206.058 65.4785 205.728 64.8719 205.301 64.3283C204.874 63.7847 204.315 63.3528 203.626 63.0325C202.947 62.7122 202.102 62.552 201.093 62.552C199.579 62.552 198.336 62.9112 197.366 63.6294C196.395 64.3477 195.91 65.2747 195.91 66.4103C195.91 67.3713 196.24 68.1526 196.9 68.7544C197.57 69.3465 198.598 69.8173 199.986 70.1667L203.364 70.9966C205.238 71.4528 206.64 72.176 207.572 73.166C208.514 74.1561 208.984 75.3985 208.984 76.8933C208.984 78.1551 208.635 79.2762 207.936 80.2566C207.237 81.2369 206.262 82.0086 205.01 82.5716C203.767 83.1248 202.326 83.4015 200.685 83.4015C198.501 83.4015 196.701 82.9113 195.284 81.9309C193.867 80.9409 192.959 79.514 192.561 77.6504L195.051 77.0389C195.371 78.3687 195.997 79.3733 196.929 80.0527C197.87 80.7322 199.108 81.0719 200.642 81.0719C202.36 81.0719 203.733 80.6885 204.762 79.9217C205.791 79.1452 206.305 78.1745 206.305 77.0098C206.305 76.1071 206.004 75.35 205.403 74.7385C204.801 74.1172 203.888 73.661 202.665 73.3699L199.011 72.4963C197.07 72.0304 195.633 71.2927 194.701 70.2832C193.769 69.2737 193.304 68.0216 193.304 66.5268C193.304 65.2941 193.638 64.2118 194.308 63.28C194.978 62.3385 195.9 61.6008 197.074 61.0669C198.249 60.5331 199.588 60.2662 201.093 60.2662C203.141 60.2662 204.777 60.7321 206 61.6639C207.232 62.586 208.12 63.8575 208.664 65.4785ZM223.823 83.4015C221.737 83.4015 219.931 82.9161 218.407 81.9455C216.883 80.9651 215.704 79.6111 214.869 77.8833C214.044 76.1459 213.632 74.1464 213.632 71.8848C213.632 69.6329 214.044 67.6333 214.869 65.8862C215.704 64.1293 216.854 62.7559 218.32 61.7658C219.795 60.766 221.499 60.2662 223.43 60.2662C224.644 60.2662 225.813 60.4894 226.939 60.9359C228.065 61.3727 229.075 62.0473 229.968 62.9597C230.87 63.8624 231.584 65.0029 232.108 66.3812C232.632 67.7498 232.894 69.3708 232.894 71.2441V72.5254H215.423V70.2395H230.244C230.244 68.803 229.953 67.512 229.371 66.3667C228.798 65.2116 227.997 64.2992 226.968 63.6294C225.949 62.9597 224.77 62.6248 223.43 62.6248C222.013 62.6248 220.766 63.0034 219.689 63.7605C218.611 64.5176 217.767 65.5173 217.155 66.7598C216.553 68.0022 216.248 69.3611 216.238 70.8365V72.2051C216.238 73.9814 216.544 75.5344 217.155 76.8642C217.776 78.1842 218.655 79.2083 219.79 79.9363C220.926 80.6642 222.27 81.0282 223.823 81.0282C224.881 81.0282 225.808 80.8632 226.604 80.5332C227.41 80.2032 228.085 79.7615 228.628 79.2083C229.181 78.6453 229.599 78.0289 229.88 77.3592L232.341 78.16C232.001 79.1015 231.443 79.9702 230.667 80.7662C229.9 81.5621 228.939 82.2027 227.784 82.688C226.638 83.1636 225.318 83.4015 223.823 83.4015ZM241.32 53.1174V82.9355H238.728V53.1174H241.32ZM257.342 83.4015C255.255 83.4015 253.45 82.9161 251.926 81.9455C250.402 80.9651 249.222 79.6111 248.388 77.8833C247.563 76.1459 247.15 74.1464 247.15 71.8848C247.15 69.6329 247.563 67.6333 248.388 65.8862C249.222 64.1293 250.373 62.7559 251.838 61.7658C253.314 60.766 255.017 60.2662 256.949 60.2662C258.162 60.2662 259.332 60.4894 260.458 60.9359C261.584 61.3727 262.593 62.0473 263.486 62.9597C264.389 63.8624 265.102 65.0029 265.626 66.3812C266.151 67.7498 266.413 69.3708 266.413 71.2441V72.5254H248.941V70.2395H263.763C263.763 68.803 263.472 67.512 262.889 66.3667C262.316 65.2116 261.516 64.2992 260.487 63.6294C259.468 62.9597 258.288 62.6248 256.949 62.6248C255.532 62.6248 254.284 63.0034 253.207 63.7605C252.13 64.5176 251.285 65.5173 250.674 66.7598C250.072 68.0022 249.766 69.3611 249.756 70.8365V72.2051C249.756 73.9814 250.062 75.5344 250.674 76.8642C251.295 78.1842 252.173 79.2083 253.309 79.9363C254.445 80.6642 255.789 81.0282 257.342 81.0282C258.4 81.0282 259.327 80.8632 260.123 80.5332C260.928 80.2032 261.603 79.7615 262.147 79.2083C262.7 78.6453 263.117 78.0289 263.399 77.3592L265.859 78.16C265.52 79.1015 264.961 79.9702 264.185 80.7662C263.418 81.5621 262.457 82.2027 261.302 82.688C260.157 83.1636 258.837 83.4015 257.342 83.4015ZM280.982 83.4015C278.983 83.4015 277.241 82.9016 275.756 81.9018C274.28 80.902 273.135 79.5334 272.319 77.796C271.504 76.0585 271.096 74.0784 271.096 71.8556C271.096 69.6135 271.509 67.6188 272.334 65.8716C273.169 64.1245 274.324 62.7559 275.799 61.7658C277.275 60.766 278.988 60.2662 280.939 60.2662C282.434 60.2662 283.788 60.5574 285.001 61.1397C286.214 61.7124 287.214 62.5229 288 63.5712C288.796 64.6098 289.296 65.8231 289.5 67.2111H286.879C286.607 65.9493 285.952 64.8719 284.914 63.9789C283.885 63.0762 282.574 62.6248 280.982 62.6248C279.556 62.6248 278.294 63.0131 277.197 63.7896C276.1 64.5564 275.241 65.629 274.62 67.0073C274.008 68.3759 273.703 69.9629 273.703 71.7683C273.703 73.5834 274.003 75.1898 274.605 76.5875C275.207 77.9756 276.052 79.0627 277.139 79.8489C278.235 80.6351 279.517 81.0282 280.982 81.0282C281.972 81.0282 282.875 80.8438 283.691 80.475C284.516 80.0964 285.205 79.5626 285.758 78.8734C286.321 78.1842 286.7 77.3641 286.894 76.4128H289.514C289.32 77.762 288.84 78.9656 288.073 80.0236C287.316 81.0719 286.331 81.897 285.117 82.4988C283.914 83.1006 282.535 83.4015 280.982 83.4015ZM304 60.5719V62.8287H293.328V60.5719H304ZM296.662 55.214H299.269V77.0971C299.269 78.0289 299.429 78.7618 299.749 79.2956C300.069 79.8198 300.487 80.1935 301.001 80.4167C301.516 80.6303 302.064 80.737 302.646 80.737C302.986 80.737 303.277 80.7176 303.52 80.6788C303.763 80.6303 303.976 80.5817 304.161 80.5332L304.714 82.8773C304.462 82.9744 304.151 83.0617 303.782 83.1394C303.413 83.2267 302.957 83.2704 302.413 83.2704C301.462 83.2704 300.545 83.0617 299.662 82.6444C298.788 82.227 298.07 81.6058 297.507 80.7807C296.944 79.9557 296.662 78.9316 296.662 77.7086V55.214ZM310.038 82.9355V60.5719H312.645V82.9355H310.038ZM311.363 56.7282C310.829 56.7282 310.373 56.5486 309.995 56.1895C309.616 55.8206 309.427 55.379 309.427 54.8645C309.427 54.3501 309.616 53.9133 309.995 53.5542C310.373 53.1853 310.829 53.0009 311.363 53.0009C311.897 53.0009 312.353 53.1853 312.732 53.5542C313.11 53.9133 313.3 54.3501 313.3 54.8645C313.3 55.379 313.11 55.8206 312.732 56.1895C312.353 56.5486 311.897 56.7282 311.363 56.7282ZM328.314 83.4015C326.382 83.4015 324.674 82.9113 323.189 81.9309C321.713 80.9506 320.558 79.5965 319.723 77.8688C318.889 76.1313 318.471 74.127 318.471 71.8556C318.471 69.5649 318.889 67.5508 319.723 65.8134C320.558 64.0662 321.713 62.7073 323.189 61.7367C324.674 60.7563 326.382 60.2662 328.314 60.2662C330.245 60.2662 331.949 60.7563 333.424 61.7367C334.899 62.717 336.054 64.0759 336.889 65.8134C337.734 67.5508 338.156 69.5649 338.156 71.8556C338.156 74.127 337.739 76.1313 336.904 77.8688C336.069 79.5965 334.909 80.9506 333.424 81.9309C331.949 82.9113 330.245 83.4015 328.314 83.4015ZM328.314 81.0282C329.867 81.0282 331.182 80.6109 332.259 79.7761C333.337 78.9413 334.152 77.83 334.705 76.4419C335.268 75.0539 335.55 73.5252 335.55 71.8556C335.55 70.1861 335.268 68.6525 334.705 67.2548C334.152 65.8571 333.337 64.736 332.259 63.8915C331.182 63.0471 329.867 62.6248 328.314 62.6248C326.77 62.6248 325.455 63.0471 324.368 63.8915C323.291 64.736 322.47 65.8571 321.907 67.2548C321.354 68.6525 321.077 70.1861 321.077 71.8556C321.077 73.5252 321.354 75.0539 321.907 76.4419C322.47 77.83 323.291 78.9413 324.368 79.7761C325.445 80.6109 326.761 81.0282 328.314 81.0282ZM346.56 68.9583V82.9355H343.968V60.5719H346.487V64.0808H346.72C347.244 62.9354 348.059 62.0182 349.166 61.329C350.282 60.6301 351.66 60.2807 353.301 60.2807C354.805 60.2807 356.125 60.5962 357.261 61.2271C358.406 61.8483 359.295 62.7656 359.925 63.9789C360.566 65.1922 360.886 66.6821 360.886 68.4487V82.9355H358.295V68.6088C358.295 66.7743 357.78 65.3232 356.751 64.2555C355.732 63.1878 354.364 62.6539 352.646 62.6539C351.471 62.6539 350.428 62.9063 349.515 63.411C348.603 63.9158 347.88 64.6438 347.346 65.595C346.822 66.5365 346.56 67.6576 346.56 68.9583ZM379.518 82.9355V60.5719H382.124V82.9355H379.518ZM380.843 56.7282C380.309 56.7282 379.853 56.5486 379.474 56.1895C379.095 55.8206 378.906 55.379 378.906 54.8645C378.906 54.3501 379.095 53.9133 379.474 53.5542C379.853 53.1853 380.309 53.0009 380.843 53.0009C381.376 53.0009 381.833 53.1853 382.211 53.5542C382.59 53.9133 382.779 54.3501 382.779 54.8645C382.779 55.379 382.59 55.8206 382.211 56.1895C381.833 56.5486 381.376 56.7282 380.843 56.7282ZM404.126 65.4785L401.753 66.1483C401.52 65.4785 401.19 64.8719 400.763 64.3283C400.336 63.7847 399.778 63.3528 399.089 63.0325C398.409 62.7122 397.565 62.552 396.555 62.552C395.041 62.552 393.799 62.9112 392.828 63.6294C391.857 64.3477 391.372 65.2747 391.372 66.4103C391.372 67.3713 391.702 68.1526 392.362 68.7544C393.032 69.3465 394.061 69.8173 395.449 70.1667L398.827 70.9966C400.7 71.4528 402.103 72.176 403.034 73.166C403.976 74.1561 404.447 75.3985 404.447 76.8933C404.447 78.1551 404.097 79.2762 403.398 80.2566C402.7 81.2369 401.724 82.0086 400.472 82.5716C399.229 83.1248 397.788 83.4015 396.148 83.4015C393.964 83.4015 392.163 82.9113 390.746 81.9309C389.329 80.9409 388.421 79.514 388.023 77.6504L390.513 77.0389C390.833 78.3687 391.459 79.3733 392.391 80.0527C393.333 80.7322 394.57 81.0719 396.104 81.0719C397.822 81.0719 399.195 80.6885 400.224 79.9217C401.253 79.1452 401.768 78.1745 401.768 77.0098C401.768 76.1071 401.467 75.35 400.865 74.7385C400.263 74.1172 399.351 73.661 398.128 73.3699L394.473 72.4963C392.532 72.0304 391.095 71.2927 390.164 70.2832C389.232 69.2737 388.766 68.0216 388.766 66.5268C388.766 65.2941 389.101 64.2118 389.771 63.28C390.44 62.3385 391.362 61.6008 392.537 61.0669C393.711 60.5331 395.051 60.2662 396.555 60.2662C398.603 60.2662 400.239 60.7321 401.462 61.6639C402.695 62.586 403.583 63.8575 404.126 65.4785ZM424.49 68.9583V82.9355H421.899V60.5719H424.417V64.0808H424.65C425.174 62.9354 425.99 62.0182 427.096 61.329C428.213 60.6301 429.591 60.2807 431.231 60.2807C432.736 60.2807 434.056 60.5962 435.192 61.2271C436.337 61.8483 437.225 62.7656 437.856 63.9789C438.497 65.1922 438.817 66.6821 438.817 68.4487V82.9355H436.225V68.6088C436.225 66.7743 435.711 65.3232 434.682 64.2555C433.663 63.1878 432.294 62.6539 430.576 62.6539C429.402 62.6539 428.358 62.9063 427.446 63.411C426.533 63.9158 425.81 64.6438 425.276 65.595C424.752 66.5365 424.49 67.6576 424.49 68.9583ZM454.457 83.4015C452.525 83.4015 450.817 82.9113 449.332 81.9309C447.856 80.9506 446.701 79.5965 445.867 77.8688C445.032 76.1313 444.615 74.127 444.615 71.8556C444.615 69.5649 445.032 67.5508 445.867 65.8134C446.701 64.0662 447.856 62.7073 449.332 61.7367C450.817 60.7563 452.525 60.2662 454.457 60.2662C456.388 60.2662 458.092 60.7563 459.567 61.7367C461.043 62.717 462.198 64.0759 463.032 65.8134C463.877 67.5508 464.299 69.5649 464.299 71.8556C464.299 74.127 463.882 76.1313 463.047 77.8688C462.212 79.5965 461.052 80.9506 459.567 81.9309C458.092 82.9113 456.388 83.4015 454.457 83.4015ZM454.457 81.0282C456.01 81.0282 457.325 80.6109 458.403 79.7761C459.48 78.9413 460.295 77.83 460.849 76.4419C461.412 75.0539 461.693 73.5252 461.693 71.8556C461.693 70.1861 461.412 68.6525 460.849 67.2548C460.295 65.8571 459.48 64.736 458.403 63.8915C457.325 63.0471 456.01 62.6248 454.457 62.6248C452.914 62.6248 451.598 63.0471 450.511 63.8915C449.434 64.736 448.614 65.8571 448.051 67.2548C447.497 68.6525 447.221 70.1861 447.221 71.8556C447.221 73.5252 447.497 75.0539 448.051 76.4419C448.614 77.83 449.434 78.9413 450.511 79.7761C451.589 80.6109 452.904 81.0282 454.457 81.0282ZM478.92 60.5719V62.8287H468.248V60.5719H478.92ZM471.582 55.214H474.188V77.0971C474.188 78.0289 474.348 78.7618 474.669 79.2956C474.989 79.8198 475.406 80.1935 475.921 80.4167C476.435 80.6303 476.983 80.737 477.566 80.737C477.906 80.737 478.197 80.7176 478.439 80.6788C478.682 80.6303 478.896 80.5817 479.08 80.5332L479.633 82.8773C479.381 82.9744 479.07 83.0617 478.702 83.1394C478.333 83.2267 477.876 83.2704 477.333 83.2704C476.382 83.2704 475.464 83.0617 474.581 82.6444C473.708 82.227 472.989 81.6058 472.426 80.7807C471.863 79.9557 471.582 78.9316 471.582 77.7086V55.214ZM496.583 91.3219V60.5719H499.102V64.8379H499.408C499.718 64.1681 500.145 63.4838 500.689 62.785C501.232 62.0764 501.951 61.4795 502.844 60.9941C503.746 60.5088 504.882 60.2662 506.251 60.2662C508.095 60.2662 509.706 60.7515 511.084 61.7221C512.472 62.6831 513.55 64.0323 514.317 65.7697C515.093 67.4975 515.481 69.5115 515.481 71.812C515.481 74.1221 515.093 76.1459 514.317 77.8833C513.55 79.6208 512.472 80.9748 511.084 81.9455C509.706 82.9161 508.104 83.4015 506.28 83.4015C504.93 83.4015 503.8 83.1588 502.887 82.6735C501.985 82.1882 501.252 81.5912 500.689 80.8826C500.135 80.1644 499.708 79.4655 499.408 78.786H499.175V91.3219H496.583ZM499.145 71.7683C499.145 73.5737 499.412 75.1752 499.946 76.573C500.49 77.961 501.266 79.053 502.276 79.8489C503.295 80.6351 504.528 81.0282 505.974 81.0282C507.459 81.0282 508.711 80.6206 509.73 79.8052C510.759 78.9802 511.541 77.8688 512.074 76.4711C512.618 75.0733 512.89 73.5057 512.89 71.7683C512.89 70.0502 512.623 68.5021 512.089 67.1238C511.565 65.7454 510.788 64.6535 509.759 63.8478C508.731 63.0325 507.469 62.6248 505.974 62.6248C504.518 62.6248 503.28 63.0179 502.261 63.8042C501.242 64.5807 500.466 65.6581 499.932 67.0364C499.408 68.405 499.145 69.9823 499.145 71.7683ZM521.29 82.9355V60.5719H523.809V64.008H523.998C524.445 62.882 525.221 61.9745 526.328 61.2853C527.444 60.5865 528.706 60.237 530.113 60.237C530.327 60.237 530.564 60.2419 530.827 60.2516C531.089 60.2613 531.307 60.271 531.482 60.2807V62.916C531.365 62.8966 531.161 62.8675 530.87 62.8287C530.579 62.7898 530.264 62.7704 529.924 62.7704C528.759 62.7704 527.72 63.0179 526.808 63.513C525.905 63.9983 525.192 64.6729 524.668 65.5368C524.144 66.4006 523.882 67.3858 523.882 68.4924V82.9355H521.29ZM544.039 83.4015C542.107 83.4015 540.399 82.9113 538.914 81.9309C537.438 80.9506 536.283 79.5965 535.448 77.8688C534.614 76.1313 534.196 74.127 534.196 71.8556C534.196 69.5649 534.614 67.5508 535.448 65.8134C536.283 64.0662 537.438 62.7073 538.914 61.7367C540.399 60.7563 542.107 60.2662 544.039 60.2662C545.97 60.2662 547.674 60.7563 549.149 61.7367C550.624 62.717 551.78 64.0759 552.614 65.8134C553.459 67.5508 553.881 69.5649 553.881 71.8556C553.881 74.127 553.464 76.1313 552.629 77.8688C551.794 79.5965 550.634 80.9506 549.149 81.9309C547.674 82.9113 545.97 83.4015 544.039 83.4015ZM544.039 81.0282C545.592 81.0282 546.907 80.6109 547.984 79.7761C549.062 78.9413 549.877 77.83 550.43 76.4419C550.993 75.0539 551.275 73.5252 551.275 71.8556C551.275 70.1861 550.993 68.6525 550.43 67.2548C549.877 65.8571 549.062 64.736 547.984 63.8915C546.907 63.0471 545.592 62.6248 544.039 62.6248C542.495 62.6248 541.18 63.0471 540.093 63.8915C539.016 64.736 538.195 65.8571 537.632 67.2548C537.079 68.6525 536.802 70.1861 536.802 71.8556C536.802 73.5252 537.079 75.0539 537.632 76.4419C538.195 77.83 539.016 78.9413 540.093 79.7761C541.17 80.6109 542.486 81.0282 544.039 81.0282ZM576.204 60.5719L568.036 82.9355H565.269L557.102 60.5719H559.912L566.551 79.514H566.755L573.394 60.5719H576.204ZM581.426 82.9355V60.5719H584.033V82.9355H581.426ZM582.751 56.7282C582.217 56.7282 581.761 56.5486 581.383 56.1895C581.004 55.8206 580.815 55.379 580.815 54.8645C580.815 54.3501 581.004 53.9133 581.383 53.5542C581.761 53.1853 582.217 53.0009 582.751 53.0009C583.285 53.0009 583.741 53.1853 584.12 53.5542C584.498 53.9133 584.688 54.3501 584.688 54.8645C584.688 55.379 584.498 55.8206 584.12 56.1895C583.741 56.5486 583.285 56.7282 582.751 56.7282ZM599.061 83.4015C597.226 83.4015 595.62 82.9161 594.242 81.9455C592.863 80.9748 591.786 79.6208 591.009 77.8833C590.243 76.1459 589.859 74.1221 589.859 71.812C589.859 69.5115 590.243 67.4975 591.009 65.7697C591.786 64.0323 592.868 62.6831 594.256 61.7221C595.644 60.7515 597.26 60.2662 599.105 60.2662C600.463 60.2662 601.594 60.5088 602.497 60.9941C603.4 61.4698 604.123 62.0618 604.666 62.7704C605.21 63.479 605.632 64.1681 605.933 64.8379H606.166V53.1174H608.772V82.9355H606.239V78.786H605.933C605.632 79.4655 605.205 80.1644 604.652 80.8826C604.099 81.5912 603.366 82.1882 602.453 82.6735C601.551 83.1588 600.42 83.4015 599.061 83.4015ZM599.367 81.0282C600.813 81.0282 602.046 80.6351 603.065 79.8489C604.084 79.053 604.861 77.961 605.394 76.573C605.938 75.1752 606.21 73.5737 606.21 71.7683C606.21 69.9823 605.943 68.405 605.409 67.0364C604.875 65.6581 604.099 64.5807 603.079 63.8042C602.06 63.0179 600.823 62.6248 599.367 62.6248C597.872 62.6248 596.61 63.0325 595.581 63.8478C594.562 64.6535 593.785 65.7454 593.252 67.1238C592.727 68.5021 592.465 70.0502 592.465 71.7683C592.465 73.5057 592.732 75.0733 593.266 76.4711C593.8 77.8688 594.577 78.9802 595.596 79.8052C596.625 80.6206 597.882 81.0282 599.367 81.0282ZM625.319 83.4015C623.232 83.4015 621.426 82.9161 619.902 81.9455C618.378 80.9651 617.199 79.6111 616.364 77.8833C615.539 76.1459 615.127 74.1464 615.127 71.8848C615.127 69.6329 615.539 67.6333 616.364 65.8862C617.199 64.1293 618.349 62.7559 619.815 61.7658C621.29 60.766 622.994 60.2662 624.925 60.2662C626.139 60.2662 627.308 60.4894 628.434 60.9359C629.56 61.3727 630.57 62.0473 631.463 62.9597C632.365 63.8624 633.079 65.0029 633.603 66.3812C634.127 67.7498 634.389 69.3708 634.389 71.2441V72.5254H616.918V70.2395H631.739C631.739 68.803 631.448 67.512 630.866 66.3667C630.293 65.2116 629.492 64.2992 628.463 63.6294C627.444 62.9597 626.265 62.6248 624.925 62.6248C623.508 62.6248 622.261 63.0034 621.184 63.7605C620.106 64.5176 619.262 65.5173 618.65 66.7598C618.048 68.0022 617.743 69.3611 617.733 70.8365V72.2051C617.733 73.9814 618.039 75.5344 618.65 76.8642C619.271 78.1842 620.15 79.2083 621.286 79.9363C622.421 80.6642 623.766 81.0282 625.319 81.0282C626.377 81.0282 627.304 80.8632 628.099 80.5332C628.905 80.2032 629.58 79.7615 630.123 79.2083C630.676 78.6453 631.094 78.0289 631.375 77.3592L633.836 78.16C633.496 79.1015 632.938 79.9702 632.162 80.7662C631.395 81.5621 630.434 82.2027 629.279 82.688C628.133 83.1636 626.813 83.4015 625.319 83.4015ZM648.275 83.4015C646.44 83.4015 644.834 82.9161 643.455 81.9455C642.077 80.9748 641 79.6208 640.223 77.8833C639.456 76.1459 639.073 74.1221 639.073 71.812C639.073 69.5115 639.456 67.4975 640.223 65.7697C641 64.0323 642.082 62.6831 643.47 61.7221C644.858 60.7515 646.474 60.2662 648.318 60.2662C649.677 60.2662 650.808 60.5088 651.711 60.9941C652.613 61.4698 653.337 62.0618 653.88 62.7704C654.424 63.479 654.846 64.1681 655.147 64.8379H655.38V53.1174H657.986V82.9355H655.453V78.786H655.147C654.846 79.4655 654.419 80.1644 653.866 80.8826C653.312 81.5912 652.58 82.1882 651.667 82.6735C650.764 83.1588 649.634 83.4015 648.275 83.4015ZM648.58 81.0282C650.027 81.0282 651.259 80.6351 652.279 79.8489C653.298 79.053 654.074 77.961 654.608 76.573C655.152 75.1752 655.424 73.5737 655.424 71.7683C655.424 69.9823 655.157 68.405 654.623 67.0364C654.089 65.6581 653.312 64.5807 652.293 63.8042C651.274 63.0179 650.036 62.6248 648.58 62.6248C647.086 62.6248 645.824 63.0325 644.795 63.8478C643.776 64.6535 642.999 65.7454 642.465 67.1238C641.941 68.5021 641.679 70.0502 641.679 71.7683C641.679 73.5057 641.946 75.0733 642.48 76.4711C643.014 77.8688 643.79 78.9802 644.81 79.8052C645.838 80.6206 647.095 81.0282 648.58 81.0282ZM685.837 83.4015C683.906 83.4015 682.197 82.9113 680.712 81.9309C679.237 80.9506 678.082 79.5965 677.247 77.8688C676.412 76.1313 675.995 74.127 675.995 71.8556C675.995 69.5649 676.412 67.5508 677.247 65.8134C678.082 64.0662 679.237 62.7073 680.712 61.7367C682.197 60.7563 683.906 60.2662 685.837 60.2662C687.769 60.2662 689.472 60.7563 690.948 61.7367C692.423 62.717 693.578 64.0759 694.413 65.8134C695.257 67.5508 695.679 69.5649 695.679 71.8556C695.679 74.127 695.262 76.1313 694.427 77.8688C693.593 79.5965 692.433 80.9506 690.948 81.9309C689.472 82.9113 687.769 83.4015 685.837 83.4015ZM685.837 81.0282C687.39 81.0282 688.705 80.6109 689.783 79.7761C690.86 78.9413 691.676 77.83 692.229 76.4419C692.792 75.0539 693.073 73.5252 693.073 71.8556C693.073 70.1861 692.792 68.6525 692.229 67.2548C691.676 65.8571 690.86 64.736 689.783 63.8915C688.705 63.0471 687.39 62.6248 685.837 62.6248C684.294 62.6248 682.979 63.0471 681.891 63.8915C680.814 64.736 679.994 65.8571 679.431 67.2548C678.878 68.6525 678.601 70.1861 678.601 71.8556C678.601 73.5252 678.878 75.0539 679.431 76.4419C679.994 77.83 680.814 78.9413 681.891 79.7761C682.969 80.6109 684.284 81.0282 685.837 81.0282ZM715.702 74.389V60.5719H718.293V82.9355H715.702V79.2228H715.498C714.974 80.3682 714.144 81.3243 713.008 82.0911C711.873 82.8482 710.485 83.2267 708.844 83.2267C707.417 83.2267 706.151 82.9161 705.044 82.2949C703.938 81.664 703.069 80.7419 702.438 79.5286C701.807 78.3153 701.492 76.8253 701.492 75.0588V60.5719H704.083V74.8986C704.083 76.6458 704.598 78.0532 705.627 79.1209C706.655 80.1789 707.976 80.7079 709.587 80.7079C710.596 80.7079 711.567 80.4653 712.499 79.9799C713.431 79.4946 714.197 78.786 714.799 77.8542C715.401 76.9127 715.702 75.7576 715.702 74.389ZM734.086 60.5719V62.8287H723.414V60.5719H734.086ZM726.748 55.214H729.354V77.0971C729.354 78.0289 729.515 78.7618 729.835 79.2956C730.155 79.8198 730.573 80.1935 731.087 80.4167C731.601 80.6303 732.15 80.737 732.732 80.737C733.072 80.737 733.363 80.7176 733.606 80.6788C733.849 80.6303 734.062 80.5817 734.246 80.5332L734.8 82.8773C734.547 82.9744 734.237 83.0617 733.868 83.1394C733.499 83.2267 733.043 83.2704 732.499 83.2704C731.548 83.2704 730.631 83.0617 729.748 82.6444C728.874 82.227 728.156 81.6058 727.593 80.7807C727.03 79.9557 726.748 78.9316 726.748 77.7086V55.214ZM754.72 65.4785L752.347 66.1483C752.114 65.4785 751.784 64.8719 751.357 64.3283C750.93 63.7847 750.372 63.3528 749.683 63.0325C749.003 62.7122 748.159 62.552 747.149 62.552C745.635 62.552 744.393 62.9112 743.422 63.6294C742.451 64.3477 741.966 65.2747 741.966 66.4103C741.966 67.3713 742.296 68.1526 742.956 68.7544C743.626 69.3465 744.655 69.8173 746.043 70.1667L749.421 70.9966C751.294 71.4528 752.696 72.176 753.628 73.166C754.57 74.1561 755.041 75.3985 755.041 76.8933C755.041 78.1551 754.691 79.2762 753.992 80.2566C753.293 81.2369 752.318 82.0086 751.066 82.5716C749.823 83.1248 748.382 83.4015 746.742 83.4015C744.558 83.4015 742.757 82.9113 741.34 81.9309C739.923 80.9409 739.015 79.514 738.617 77.6504L741.107 77.0389C741.427 78.3687 742.053 79.3733 742.985 80.0527C743.927 80.7322 745.164 81.0719 746.698 81.0719C748.416 81.0719 749.789 80.6885 750.818 79.9217C751.847 79.1452 752.362 78.1745 752.362 77.0098C752.362 76.1071 752.061 75.35 751.459 74.7385C750.857 74.1172 749.945 73.661 748.722 73.3699L745.067 72.4963C743.126 72.0304 741.689 71.2927 740.758 70.2832C739.826 69.2737 739.36 68.0216 739.36 66.5268C739.36 65.2941 739.695 64.2118 740.364 63.28C741.034 62.3385 741.956 61.6008 743.131 61.0669C744.305 60.5331 745.645 60.2662 747.149 60.2662C749.197 60.2662 750.833 60.7321 752.056 61.6639C753.289 62.586 754.177 63.8575 754.72 65.4785ZM760.867 82.9355V60.5719H763.473V82.9355H760.867ZM762.192 56.7282C761.658 56.7282 761.202 56.5486 760.824 56.1895C760.445 55.8206 760.256 55.379 760.256 54.8645C760.256 54.3501 760.445 53.9133 760.824 53.5542C761.202 53.1853 761.658 53.0009 762.192 53.0009C762.726 53.0009 763.182 53.1853 763.561 53.5542C763.939 53.9133 764.129 54.3501 764.129 54.8645C764.129 55.379 763.939 55.8206 763.561 56.1895C763.182 56.5486 762.726 56.7282 762.192 56.7282ZM778.502 83.4015C776.667 83.4015 775.061 82.9161 773.683 81.9455C772.304 80.9748 771.227 79.6208 770.45 77.8833C769.684 76.1459 769.3 74.1221 769.3 71.812C769.3 69.5115 769.684 67.4975 770.45 65.7697C771.227 64.0323 772.309 62.6831 773.697 61.7221C775.085 60.7515 776.701 60.2662 778.546 60.2662C779.905 60.2662 781.035 60.5088 781.938 60.9941C782.841 61.4698 783.564 62.0618 784.107 62.7704C784.651 63.479 785.073 64.1681 785.374 64.8379H785.607V53.1174H788.213V82.9355H785.68V78.786H785.374C785.073 79.4655 784.646 80.1644 784.093 80.8826C783.54 81.5912 782.807 82.1882 781.894 82.6735C780.992 83.1588 779.861 83.4015 778.502 83.4015ZM778.808 81.0282C780.254 81.0282 781.487 80.6351 782.506 79.8489C783.525 79.053 784.302 77.961 784.835 76.573C785.379 75.1752 785.651 73.5737 785.651 71.7683C785.651 69.9823 785.384 68.405 784.85 67.0364C784.316 65.6581 783.54 64.5807 782.52 63.8042C781.501 63.0179 780.264 62.6248 778.808 62.6248C777.313 62.6248 776.051 63.0325 775.022 63.8478C774.003 64.6535 773.226 65.7454 772.693 67.1238C772.168 68.5021 771.906 70.0502 771.906 71.7683C771.906 73.5057 772.173 75.0733 772.707 76.4711C773.241 77.8688 774.018 78.9802 775.037 79.8052C776.066 80.6206 777.323 81.0282 778.808 81.0282ZM804.759 83.4015C802.673 83.4015 800.867 82.9161 799.343 81.9455C797.819 80.9651 796.64 79.6111 795.805 77.8833C794.98 76.1459 794.568 74.1464 794.568 71.8848C794.568 69.6329 794.98 67.6333 795.805 65.8862C796.64 64.1293 797.79 62.7559 799.256 61.7658C800.731 60.766 802.435 60.2662 804.366 60.2662C805.58 60.2662 806.749 60.4894 807.875 60.9359C809.001 61.3727 810.011 62.0473 810.904 62.9597C811.806 63.8624 812.52 65.0029 813.044 66.3812C813.568 67.7498 813.83 69.3708 813.83 71.2441V72.5254H796.359V70.2395H811.18C811.18 68.803 810.889 67.512 810.307 66.3667C809.734 65.2116 808.933 64.2992 807.904 63.6294C806.885 62.9597 805.706 62.6248 804.366 62.6248C802.949 62.6248 801.702 63.0034 800.625 63.7605C799.547 64.5176 798.703 65.5173 798.091 66.7598C797.489 68.0022 797.184 69.3611 797.174 70.8365V72.2051C797.174 73.9814 797.48 75.5344 798.091 76.8642C798.712 78.1842 799.591 79.2083 800.726 79.9363C801.862 80.6642 803.206 81.0282 804.759 81.0282C805.817 81.0282 806.744 80.8632 807.54 80.5332C808.346 80.2032 809.021 79.7615 809.564 79.2083C810.117 78.6453 810.535 78.0289 810.816 77.3592L813.277 78.16C812.937 79.1015 812.379 79.9702 811.602 80.7662C810.836 81.5621 809.875 82.2027 808.72 82.688C807.574 83.1636 806.254 83.4015 804.759 83.4015ZM840.127 60.5719V62.8287H829.455V60.5719H840.127ZM832.789 55.214H835.395V77.0971C835.395 78.0289 835.555 78.7618 835.876 79.2956C836.196 79.8198 836.613 80.1935 837.128 80.4167C837.642 80.6303 838.191 80.737 838.773 80.737C839.113 80.737 839.404 80.7176 839.647 80.6788C839.889 80.6303 840.103 80.5817 840.287 80.5332L840.841 82.8773C840.588 82.9744 840.278 83.0617 839.909 83.1394C839.54 83.2267 839.084 83.2704 838.54 83.2704C837.589 83.2704 836.672 83.0617 835.788 82.6444C834.915 82.227 834.196 81.6058 833.633 80.7807C833.071 79.9557 832.789 78.9316 832.789 77.7086V55.214ZM849.208 68.9583V82.9355H846.616V53.1174H849.208V64.0808H849.441C849.965 62.9257 850.775 62.0036 851.872 61.3145C852.979 60.6253 854.377 60.2807 856.065 60.2807C857.58 60.2807 858.909 60.5913 860.055 61.2125C861.2 61.8337 862.093 62.751 862.734 63.9643C863.374 65.1776 863.695 66.6724 863.695 68.4487V82.9355H861.089V68.6088C861.089 66.7646 860.574 65.3135 859.545 64.2555C858.526 63.1878 857.148 62.6539 855.41 62.6539C854.216 62.6539 853.154 62.9063 852.222 63.411C851.29 63.9158 850.552 64.6438 850.009 65.595C849.475 66.5365 849.208 67.6576 849.208 68.9583ZM879.684 83.4015C877.597 83.4015 875.792 82.9161 874.268 81.9455C872.744 80.9651 871.565 79.6111 870.73 77.8833C869.905 76.1459 869.492 74.1464 869.492 71.8848C869.492 69.6329 869.905 67.6333 870.73 65.8862C871.565 64.1293 872.715 62.7559 874.181 61.7658C875.656 60.766 877.359 60.2662 879.291 60.2662C880.504 60.2662 881.674 60.4894 882.8 60.9359C883.926 61.3727 884.935 62.0473 885.828 62.9597C886.731 63.8624 887.444 65.0029 887.969 66.3812C888.493 67.7498 888.755 69.3708 888.755 71.2441V72.5254H871.283V70.2395H886.105C886.105 68.803 885.814 67.512 885.231 66.3667C884.659 65.2116 883.858 64.2992 882.829 63.6294C881.81 62.9597 880.631 62.6248 879.291 62.6248C877.874 62.6248 876.627 63.0034 875.549 63.7605C874.472 64.5176 873.627 65.5173 873.016 66.7598C872.414 68.0022 872.108 69.3611 872.099 70.8365V72.2051C872.099 73.9814 872.404 75.5344 873.016 76.8642C873.637 78.1842 874.515 79.2083 875.651 79.9363C876.787 80.6642 878.131 81.0282 879.684 81.0282C880.742 81.0282 881.669 80.8632 882.465 80.5332C883.271 80.2032 883.945 79.7615 884.489 79.2083C885.042 78.6453 885.459 78.0289 885.741 77.3592L888.202 78.16C887.862 79.1015 887.304 79.9702 886.527 80.7662C885.76 81.5621 884.799 82.2027 883.644 82.688C882.499 83.1636 881.179 83.4015 879.684 83.4015ZM906.243 91.3219V60.5719H908.762V64.8379H909.068C909.378 64.1681 909.805 63.4838 910.349 62.785C910.892 62.0764 911.611 61.4795 912.504 60.9941C913.406 60.5088 914.542 60.2662 915.911 60.2662C917.755 60.2662 919.366 60.7515 920.744 61.7221C922.132 62.6831 923.21 64.0323 923.977 65.7697C924.753 67.4975 925.141 69.5115 925.141 71.812C925.141 74.1221 924.753 76.1459 923.977 77.8833C923.21 79.6208 922.132 80.9748 920.744 81.9455C919.366 82.9161 917.765 83.4015 915.94 83.4015C914.591 83.4015 913.46 83.1588 912.547 82.6735C911.645 82.1882 910.912 81.5912 910.349 80.8826C909.796 80.1644 909.369 79.4655 909.068 78.786H908.835V91.3219H906.243ZM908.806 71.7683C908.806 73.5737 909.072 75.1752 909.606 76.573C910.15 77.961 910.926 79.053 911.936 79.8489C912.955 80.6351 914.188 81.0282 915.634 81.0282C917.119 81.0282 918.371 80.6206 919.39 79.8052C920.419 78.9802 921.201 77.8688 921.735 76.4711C922.278 75.0733 922.55 73.5057 922.55 71.7683C922.55 70.0502 922.283 68.5021 921.749 67.1238C921.225 65.7454 920.448 64.6535 919.42 63.8478C918.391 63.0325 917.129 62.6248 915.634 62.6248C914.178 62.6248 912.94 63.0179 911.921 63.8042C910.902 64.5807 910.126 65.6581 909.592 67.0364C909.068 68.405 908.806 69.9823 908.806 71.7683ZM930.95 82.9355V60.5719H933.469V64.008H933.658C934.105 62.882 934.881 61.9745 935.988 61.2853C937.104 60.5865 938.366 60.237 939.773 60.237C939.987 60.237 940.225 60.2419 940.487 60.2516C940.749 60.2613 940.967 60.271 941.142 60.2807V62.916C941.025 62.8966 940.822 62.8675 940.53 62.8287C940.239 62.7898 939.924 62.7704 939.584 62.7704C938.419 62.7704 937.381 63.0179 936.468 63.513C935.565 63.9983 934.852 64.6729 934.328 65.5368C933.804 66.4006 933.542 67.3858 933.542 68.4924V82.9355H930.95ZM953.699 83.4015C951.767 83.4015 950.059 82.9113 948.574 81.9309C947.098 80.9506 945.943 79.5965 945.109 77.8688C944.274 76.1313 943.856 74.127 943.856 71.8556C943.856 69.5649 944.274 67.5508 945.109 65.8134C945.943 64.0662 947.098 62.7073 948.574 61.7367C950.059 60.7563 951.767 60.2662 953.699 60.2662C955.63 60.2662 957.334 60.7563 958.809 61.7367C960.285 62.717 961.44 64.0759 962.274 65.8134C963.119 67.5508 963.541 69.5649 963.541 71.8556C963.541 74.127 963.124 76.1313 962.289 77.8688C961.454 79.5965 960.294 80.9506 958.809 81.9309C957.334 82.9113 955.63 83.4015 953.699 83.4015ZM953.699 81.0282C955.252 81.0282 956.567 80.6109 957.644 79.7761C958.722 78.9413 959.537 77.83 960.09 76.4419C960.653 75.0539 960.935 73.5252 960.935 71.8556C960.935 70.1861 960.653 68.6525 960.09 67.2548C959.537 65.8571 958.722 64.736 957.644 63.8915C956.567 63.0471 955.252 62.6248 953.699 62.6248C952.155 62.6248 950.84 63.0471 949.753 63.8915C948.676 64.736 947.855 65.8571 947.292 67.2548C946.739 68.6525 946.463 70.1861 946.463 71.8556C946.463 73.5252 946.739 75.0539 947.292 76.4419C947.855 77.83 948.676 78.9413 949.753 79.7761C950.83 80.6109 952.146 81.0282 953.699 81.0282ZM977.885 91.7878C976.361 91.7878 975.027 91.5888 973.881 91.1909C972.736 90.8026 971.77 90.2688 970.984 89.5893C970.198 88.9099 969.586 88.1479 969.149 87.3034L971.275 85.9057C971.595 86.4687 972.023 87.022 972.556 87.5655C973.1 88.1091 973.804 88.5604 974.668 88.9196C975.541 89.2787 976.614 89.4583 977.885 89.4583C979.865 89.4583 981.462 88.9632 982.675 87.9732C983.898 86.9831 984.51 85.4447 984.51 83.3578V78.3201H984.277C983.976 78.9996 983.544 79.679 982.981 80.3585C982.418 81.0282 981.68 81.5864 980.768 82.0328C979.865 82.4793 978.744 82.7026 977.405 82.7026C975.619 82.7026 974.032 82.2609 972.644 81.3777C971.265 80.4944 970.178 79.2325 969.382 77.5922C968.596 75.9421 968.203 73.9765 968.203 71.6955C968.203 69.4339 968.586 67.4441 969.353 65.726C970.13 64.008 971.212 62.6685 972.6 61.7076C973.988 60.7466 975.604 60.2662 977.448 60.2662C978.817 60.2662 979.953 60.5088 980.855 60.9941C981.758 61.4698 982.481 62.0618 983.025 62.7704C983.578 63.479 984.01 64.1681 984.321 64.8379H984.583V60.5719H987.116V83.5179C987.116 85.4107 986.713 86.9686 985.908 88.1916C985.102 89.4146 984.005 90.3173 982.617 90.8997C981.229 91.4918 979.652 91.7878 977.885 91.7878ZM977.711 80.3294C979.147 80.3294 980.375 79.9848 981.394 79.2956C982.413 78.5968 983.195 77.597 983.738 76.2963C984.282 74.9957 984.554 73.4475 984.554 71.6518C984.554 69.9047 984.287 68.3565 983.753 67.0073C983.219 65.6484 982.442 64.5807 981.423 63.8042C980.414 63.0179 979.176 62.6248 977.711 62.6248C976.216 62.6248 974.954 63.0276 973.925 63.8333C972.896 64.6389 972.12 65.726 971.595 67.0946C971.071 68.4535 970.809 69.9726 970.809 71.6518C970.809 73.3601 971.076 74.8695 971.61 76.1799C972.144 77.4805 972.925 78.4997 973.954 79.2374C974.983 79.9654 976.235 80.3294 977.711 80.3294ZM994.1 82.9355V60.5719H996.619V64.008H996.808C997.255 62.882 998.031 61.9745 999.138 61.2853C1000.25 60.5865 1001.52 60.237 1002.92 60.237C1003.14 60.237 1003.37 60.2419 1003.64 60.2516C1003.9 60.2613 1004.12 60.271 1004.29 60.2807V62.916C1004.18 62.8966 1003.97 62.8675 1003.68 62.8287C1003.39 62.7898 1003.07 62.7704 1002.73 62.7704C1001.57 62.7704 1000.53 63.0179 999.618 63.513C998.716 63.9983 998.002 64.6729 997.478 65.5368C996.954 66.4006 996.692 67.3858 996.692 68.4924V82.9355H994.1ZM1015.08 83.4451C1013.73 83.4451 1012.5 83.1831 1011.39 82.6589C1010.27 82.1251 1009.38 81.3583 1008.72 80.3585C1008.06 79.349 1007.73 78.126 1007.73 76.6895C1007.73 75.5829 1007.94 74.6511 1008.36 73.894C1008.77 73.1369 1009.37 72.5157 1010.13 72.0304C1010.9 71.545 1011.81 71.1616 1012.86 70.8801C1013.9 70.5987 1015.06 70.3803 1016.32 70.225C1017.57 70.0697 1018.63 69.9338 1019.5 69.8173C1020.37 69.7008 1021.03 69.5164 1021.49 69.264C1021.95 69.0117 1022.17 68.604 1022.17 68.041V67.5169C1022.17 65.993 1021.72 64.7942 1020.81 63.9206C1019.9 63.0373 1018.6 62.5957 1016.9 62.5957C1015.29 62.5957 1013.98 62.95 1012.96 63.6586C1011.95 64.3671 1011.24 65.2019 1010.83 66.1628L1008.37 65.2747C1008.88 64.0517 1009.58 63.0762 1010.47 62.3482C1011.36 61.6105 1012.36 61.0815 1013.47 60.7612C1014.57 60.4312 1015.7 60.2662 1016.83 60.2662C1017.68 60.2662 1018.57 60.3778 1019.5 60.601C1020.43 60.8243 1021.29 61.2125 1022.09 61.7658C1022.88 62.3094 1023.53 63.0713 1024.02 64.0517C1024.52 65.0223 1024.77 66.255 1024.77 67.7498V82.9355H1022.17V79.3975H1022.01C1021.7 80.0576 1021.24 80.6982 1020.63 81.3194C1020.02 81.9406 1019.25 82.4502 1018.33 82.8482C1017.41 83.2462 1016.33 83.4451 1015.08 83.4451ZM1015.43 81.0719C1016.81 81.0719 1018.01 80.7662 1019.01 80.1547C1020.02 79.5431 1020.8 78.7327 1021.34 77.7232C1021.9 76.704 1022.17 75.5829 1022.17 74.3599V71.1277C1021.98 71.3121 1021.65 71.4771 1021.2 71.6227C1020.75 71.7683 1020.23 71.8993 1019.64 72.0158C1019.06 72.1226 1018.48 72.2148 1017.89 72.2924C1017.31 72.3701 1016.79 72.438 1016.32 72.4963C1015.06 72.6516 1013.98 72.8942 1013.09 73.2243C1012.2 73.5543 1011.51 74.0105 1011.04 74.5929C1010.56 75.1655 1010.32 75.9032 1010.32 76.8059C1010.32 78.1648 1010.81 79.218 1011.78 79.9654C1012.75 80.7031 1013.97 81.0719 1015.43 81.0719ZM1031.78 82.9355V60.5719H1034.3V64.008H1034.53C1034.98 62.8529 1035.72 61.9454 1036.76 61.2853C1037.81 60.6156 1039.07 60.2807 1040.53 60.2807C1042.08 60.2807 1043.34 60.6447 1044.33 61.3727C1045.33 62.091 1046.08 63.081 1046.58 64.3429H1046.76C1047.27 63.1004 1048.09 62.1152 1049.23 61.3873C1050.37 60.6496 1051.76 60.2807 1053.39 60.2807C1055.47 60.2807 1057.11 60.9359 1058.31 62.2463C1059.51 63.5469 1060.12 65.4494 1060.12 67.9537V82.9355H1057.52V67.9537C1057.52 66.1871 1057.07 64.8622 1056.17 63.9789C1055.27 63.0956 1054.08 62.6539 1052.6 62.6539C1050.89 62.6539 1049.58 63.1781 1048.66 64.2264C1047.74 65.2747 1047.27 66.6045 1047.27 68.2157V82.9355H1044.62V67.7207C1044.62 66.2065 1044.2 64.9835 1043.36 64.0517C1042.51 63.1199 1041.32 62.6539 1039.79 62.6539C1038.76 62.6539 1037.83 62.9063 1037.01 63.411C1036.19 63.9158 1035.55 64.6195 1035.07 65.5222C1034.61 66.4152 1034.37 67.4441 1034.37 68.6088V82.9355H1031.78ZM1069.17 83.1539C1068.59 83.1539 1068.1 82.9501 1067.68 82.5424C1067.27 82.1251 1067.07 81.63 1067.07 81.0574C1067.07 80.475 1067.27 79.9799 1067.68 79.5723C1068.1 79.1646 1068.59 78.9608 1069.17 78.9608C1069.75 78.9608 1070.24 79.1646 1070.65 79.5723C1071.06 79.9799 1071.26 80.475 1071.26 81.0574C1071.26 81.4359 1071.17 81.7853 1070.97 82.1056C1070.79 82.426 1070.54 82.6832 1070.22 82.8773C1069.91 83.0617 1069.56 83.1539 1069.17 83.1539Z" fill="#AFB3C7"/>
</svg>
